<svg width="63" height="103" viewBox="0 0 63 103" fill="none" xmlns="http://www.w3.org/2000/svg">
<g clip-path="url(#clip0_15397_3981)">
<path d="M2.08893 41.1019C0.89312 41.1267 -0.618683 42.1563 0.25494 43.4464C1.72337 44.817 3.92292 45.0217 5.78789 45.5675C7.98124 46.0699 10.1498 46.6529 12.1387 47.3351C15.627 48.8671 19.4375 50.0579 22.4487 52.4458C23.8799 53.9033 25.2059 55.522 26.2158 57.3083C27.5169 60.0745 28.0374 63.1135 28.7127 66.0224C30.7016 74.6434 31.2221 83.4754 32.8268 92.1709C33.2853 95.241 33.5394 98.3359 33.8182 101.431C33.8058 102.653 35.3486 103.676 36.1602 102.448C36.8728 100.959 36.7303 99.198 36.9161 97.5854C37.0091 96.0348 37.0648 94.4595 37.1702 92.9337C37.765 87.2339 38.9236 81.6767 38.8988 75.9459C39.1776 71.8959 39.6795 67.852 40.3177 63.8392C40.5841 62.1212 40.7452 60.366 41.3152 58.7162C41.8419 57.209 42.8766 55.7453 43.5334 54.4181C43.9919 53.5001 44.3822 52.7125 44.9522 51.8876C45.6648 50.858 46.842 50.306 47.759 49.4811C49.4257 47.9802 51.2101 46.7893 53.3415 46.3118C56.0677 45.3318 58.7381 44.1472 61.644 43.8185C63.7692 43.4029 63.2611 41.1019 61.0368 41.3314C56.9785 41.3438 53.0069 40.3825 48.9362 40.5499C47.4492 40.5003 46.1852 39.7436 45.039 38.8629C44.6424 38.528 44.1344 38.2551 43.6325 38.4784C42.7217 35.3897 41.687 32.3258 40.7638 29.2247C39.8468 26.136 39.0351 23.0101 38.5828 19.8098C37.765 13.4091 37.418 6.85336 36.2036 0.545718C35.7885 -0.173737 34.698 -0.186142 34.2767 0.545718C33.9855 0.986075 33.9049 1.50086 33.7996 2.00944C32.7587 6.6859 32.5542 11.4926 31.6434 16.1939C30.6768 20.7277 30.3732 25.3607 29.7041 29.938C29.4624 31.1288 29.2084 32.3382 28.6446 33.4236C27.9692 34.633 26.9097 35.5882 25.9308 36.5495C24.4562 37.8458 22.4673 38.2055 20.6147 38.6521C15.8934 39.5266 11.135 39.8181 6.3765 40.1468C4.92046 40.3267 3.52018 40.7918 2.08893 41.1019ZM4.30087 42.8758C7.67764 41.9144 11.2217 42.2927 14.6232 41.7532C18.5886 41.1764 22.8452 41.0461 26.3955 38.9932C32.1143 35.0858 32.0152 30.093 32.6781 23.866C33.3845 18.5693 34.5493 13.3409 35.0574 8.01937C35.8876 13.8432 35.9867 19.785 37.4738 25.5034C38.335 28.9828 39.5866 32.3444 40.5903 35.7804C41.086 37.4674 41.594 39.1668 42.3252 40.7732C42.6102 41.5051 43.7006 41.6229 44.122 40.9531C47.2819 43.7131 51.6128 42.4106 55.3923 43.1611C53.2423 44.1348 51.0242 44.4201 49.0601 45.6605C47.5979 46.6033 46.3463 47.8003 44.9522 48.8237C44.2707 49.2702 43.6201 49.8594 43.1678 50.5355C41.941 52.3899 41.1541 54.2196 40.0389 56.0802C38.3164 59.2434 38.3288 62.6918 37.703 66.1216C37.2693 69.2537 36.8728 72.5409 36.6745 75.673C36.5134 78.6501 36.4948 81.3356 36.1107 84.2072C35.9805 85.119 35.8318 86.0307 35.6769 86.9424C35.4167 88.524 35.1689 90.1055 35.0264 91.6995C33.4092 82.8986 32.9322 74.2403 30.9061 65.582C30.0139 61.8917 29.5058 57.9657 27.2939 54.7964C25.9308 52.9233 24.5119 50.9634 22.5416 49.692C20.9307 48.6438 19.171 47.9554 17.4424 47.1553C13.2973 45.0527 8.78671 43.9673 4.30087 42.8758Z" fill="white"/>
<path d="M14.6215 41.7533C11.22 42.2929 7.67593 41.9146 4.29916 42.8759C8.785 43.9675 13.2956 45.0529 17.4407 47.1554C19.1693 47.9555 20.929 48.644 22.5399 49.6921C24.5102 50.9636 25.9291 52.9235 27.2922 54.7966C29.5041 57.9659 30.0122 61.8919 30.9044 65.5822C32.9305 74.2405 33.4075 82.8987 35.0247 91.6997C35.1672 90.1057 35.415 88.5241 35.6752 86.9426C35.8301 86.0308 35.9788 85.1191 36.109 84.2074C36.4931 81.3358 36.5117 78.6502 36.6728 75.6732C36.8711 72.5411 37.2676 69.2539 37.7013 66.1218C38.3271 62.692 38.3147 59.2435 40.0372 56.0804C41.1524 54.2197 41.9393 52.3901 43.1661 50.5356C43.6184 49.8596 44.269 49.2704 44.9505 48.8238C46.3446 47.8005 47.5962 46.6034 49.0584 45.6607C51.0225 44.4203 53.2406 44.135 55.3906 43.1612C51.6111 42.4107 47.2802 43.7132 44.1203 40.9532C43.6989 41.6231 42.6085 41.5052 42.3235 40.7734C41.5923 39.167 41.0843 37.4676 40.5886 35.7806C39.5849 32.3446 38.3333 28.983 37.4721 25.5035C35.985 19.7851 35.8859 13.8434 35.0557 8.01953C34.5476 13.341 33.3828 18.5695 32.6764 23.8662C32.0135 30.0932 32.1126 35.0859 26.3938 38.9933C22.8435 41.0463 18.5869 41.1765 14.6215 41.7533Z" fill="white"/>
</g>
<defs>
<clipPath id="clip0_15397_3981">
<rect width="63" height="103" fill="white" transform="matrix(-1 0 0 1 63 0)"/>
</clipPath>
</defs>
</svg>
