<svg width="737" height="214" viewBox="0 0 737 214" fill="none" xmlns="http://www.w3.org/2000/svg">
<path d="M599.081 202.256C619.121 204.701 639.181 207.649 659.415 207.376C661.617 207.391 663.79 207.355 665.984 207.239C666.329 208.151 667.229 208.842 668.752 208.809C674.861 207.21 681.079 206.764 687.344 206.136C696.431 203.825 705.858 202.275 715.252 203.247C719.566 203.708 723.9 202.854 728.165 203.584C730.209 203.709 732.164 204.503 734.212 204.283C735.869 204.069 736.952 202.168 736.289 200.653C734.886 198.251 731.529 198.431 729.087 198.093C725.113 198.067 721.126 197.843 717.21 197.184C702.134 193.878 687.583 188.568 673.218 183.047C664.682 180.288 656.152 177.51 647.738 174.372C636.308 170.854 624.562 168.378 613.201 164.597C604.607 161.153 595.849 158.336 587.041 155.463C579.822 152.964 573.437 148.606 566.312 145.915C560.92 143.873 555.219 142.68 549.87 140.476C542.473 137.086 535.231 132.699 529.497 126.846C514.188 106.864 487.916 101.703 464.367 98.1208C455.915 97.3529 447.418 97.828 438.955 98.4203C435.142 98.6096 431.495 99.2322 427.684 98.3405C427.624 98.2383 426.754 98.01 426.548 97.8046C425.972 88.7839 422.587 80.497 418.956 72.319C415.63 64.1344 411.587 56.043 405.393 49.6371C399.067 42.8286 391.496 37.3813 384.239 31.6482C375.738 25.0481 367.179 18.1732 357.225 13.896C347.166 9.93739 336.495 7.89528 326.045 5.26188C313.443 2.58324 300.619 0.257331 287.689 0.0669461C269.949 0.648154 252.508 6.02406 236.119 12.5846C231.069 14.7644 226.321 17.6075 221.893 20.8806C220.306 22.0651 218.734 23.2751 217.076 24.3979C216.687 24.7284 216.144 24.7373 215.773 24.3371C212.262 21.5557 208.65 18.834 204.566 16.919C196.363 13.4691 187.453 11.9752 178.797 10.0071C170.451 8.42336 161.873 7.1465 153.385 8.16478C129.556 11.67 110.432 28.6543 94.0451 45.1881C64.9276 73.6337 48.1168 101.76 3.19782 104.925C-21.1838 106.165 -46.1424 98.0594 -69.9669 106.412C-83.0929 110.432 -95.3812 116.618 -108.088 121.679C-116.948 125.022 -126.496 126.044 -135.921 125.604C-180.544 122.941 -227.851 114.922 -269.936 134.579C-280.82 139.533 -290.176 147.16 -300.771 152.666C-314.596 159.185 -329.271 163.253 -344.11 167.126C-356.775 171.613 -368.912 177.472 -381.983 180.706C-392.76 183.85 -403.663 186.571 -414.312 190.137C-418.733 191.487 -422.728 193.77 -427.365 194.457C-429.081 194.072 -431.04 194.943 -431.806 196.624C-427.814 196.005 -423.823 195.387 -419.852 194.763C-423.828 195.407 -427.82 196.025 -431.806 196.624C-432.284 196.715 -432.757 196.785 -433.23 196.856C-434.839 197.299 -438.411 197.639 -437.53 200.055C-437.143 200.805 -436.035 201.117 -435.394 200.572C-434.19 200.433 -433 200.269 -431.79 200.111C-431.671 200.315 -431.49 200.449 -431.263 200.574C-430.487 201.08 -429.507 200.559 -429.264 199.8C-416.282 198.144 -403.368 196.167 -390.52 193.783C-375.609 191.291 -360.852 187.483 -345.749 186.318C-330.257 185.731 -315.083 189.82 -299.613 190.308C-275.659 191.769 -251.856 186.136 -227.9 187.921C-212.731 189.391 -197.719 192.118 -182.524 193.487C-154.034 195.964 -125.499 198.106 -97.4268 203.827C-80.1933 207.569 -62.8353 211.084 -45.2161 212.202C-29.546 213.327 -13.8768 211.9 1.79442 211.62C23.8537 211.068 45.8743 214.292 67.9595 212.818C87.4844 211.536 106.783 208.314 126.295 206.834C143.104 205.598 160 206.504 176.814 205.247C211.365 203.343 245.659 200.355 280.265 203.679C313.367 206.306 346.302 198.44 379.438 202.092C420.922 205.339 462.326 199.413 503.825 200.544C520.886 200.736 537.912 199.578 554.975 199.274C569.745 199.211 584.445 200.407 599.081 202.256ZM674.165 203.76C674.137 203.537 674.069 203.302 673.97 203.103C674.069 203.302 674.117 203.531 674.165 203.76ZM-429.011 198.093C-429.119 198.173 -429.191 198.283 -429.269 198.414C-429.196 198.304 -429.124 198.193 -429.011 198.093C-427.361 198.482 -425.761 198.404 -424.179 198.062C-425.756 198.384 -427.381 198.477 -429.011 198.093Z" fill="#A08FEE"/>
</svg>
