<svg width="158" height="220" viewBox="0 0 158 220" fill="none" xmlns="http://www.w3.org/2000/svg">
<g clip-path="url(#clip0_15276_45054)">
<path d="M156.943 48.669C158.312 49.2164 158.295 50.8496 157.273 51.7619C149.718 58.1039 139.044 57.6695 130.398 61.831C127.366 63.6206 123.822 65.2974 122.297 68.6682C119.638 74.9321 118.641 81.7086 117.229 88.3199C116.328 93.1416 115.964 98.1023 115.713 102.967C115.531 105.383 115.002 107.746 114.552 110.118C114.257 111.325 114.223 112.924 112.915 113.471C112.074 113.801 111.034 113.375 110.792 112.437C109.406 103.237 109.388 93.8193 107.569 84.6624C106.131 78.5201 104.788 72.2476 102.336 66.4181C100.733 62.8648 97.4411 60.5191 94.5041 58.1474C89.999 55.0024 84.5322 53.76 79.1434 53.5342C77.2807 52.9608 77.8698 50.2502 79.8018 50.4153C83.9604 50.311 87.937 50.2936 92.0176 49.8419C93.863 49.3727 95.2579 48.5908 96.93 47.8089C99.8496 46.2973 103.125 45.1679 105.568 42.9004C106.902 37.2272 109.371 31.8843 110.419 26.1504C112.126 17.6798 113.131 8.93992 114.959 0.590986C115.67 -0.416794 117.368 -0.0605958 117.654 1.12963C117.922 2.22428 118.017 3.37976 118.121 4.50916C118.901 12.4932 118.624 20.4686 120.383 28.3049C121.015 31.2501 121.561 34.1083 121.795 37.0969C122.323 39.7293 121.769 43.6041 124.047 45.4024C128.353 48.2694 133.499 49.0426 138.576 48.8775C143.983 48.7298 149.397 48.4431 154.812 48.53C155.523 48.5561 156.259 48.4345 156.943 48.669ZM151.815 51.675C141.973 51.3275 126.69 54.7591 120.105 45.4459C118.615 41.3105 118.892 36.7929 118.052 32.5098C117.766 31.0763 117.489 29.6863 117.203 28.2875C116.155 23.4919 115.895 18.5399 115.6 13.7095C114.587 19.6606 113.772 25.6725 112.091 31.4933C111.156 34.9684 109.882 37.9831 108.869 41.3539C110.168 42.466 108.903 44.0124 107.994 44.9159C107.985 44.9767 107.968 45.0375 107.959 45.0984C107.846 45.6631 107.751 46.2365 107.69 46.8098C108.999 49.7289 104.528 50.8931 104.883 47.279C100.673 49.4422 96.4621 52.092 91.7924 53.0563C94.5041 54.2292 97.0339 55.932 99.1739 57.9128C101.383 59.7546 103.722 61.9092 104.901 64.5502C106.373 67.4433 107.24 70.5882 108.054 73.7245C109.934 80.2316 111.338 86.4347 111.953 93.1069C112.256 95.635 112.499 98.1805 112.724 100.726C112.992 93.2025 114.379 85.9047 116.051 78.6157C117.333 73.6898 118.139 68.286 121.448 64.2462C126.127 59.633 132.399 57.3915 138.611 55.7322C143.012 54.4464 147.751 53.8209 151.815 51.675Z" fill="white"/>
<path d="M120.104 45.4458C126.688 54.7591 141.971 51.3274 151.813 51.675C147.75 53.8208 143.011 54.4464 138.61 55.7321C132.398 57.3915 126.125 59.6329 121.447 64.2461C118.137 68.2859 117.332 73.6897 116.049 78.6157C114.377 85.9047 112.991 93.2024 112.723 100.726C112.497 98.1805 112.255 95.635 111.951 93.1069C111.336 86.4347 109.933 80.2316 108.053 73.7245C107.238 70.5882 106.372 67.4432 104.899 64.5502C103.721 61.9091 101.382 59.7546 99.1725 57.9128C97.0326 55.932 94.5028 54.2292 91.791 53.0563C96.4608 52.092 100.671 49.4422 104.882 47.279C104.527 50.8931 108.997 49.7289 107.689 46.8098C107.75 46.2364 107.845 45.663 107.957 45.0983C107.966 45.0375 107.983 44.9767 107.992 44.9159C108.902 44.0124 110.167 42.4659 108.867 41.3539C109.881 37.9831 111.154 34.9684 112.09 31.4933C113.771 25.6725 114.585 19.6606 115.599 13.7095C115.893 18.5399 116.153 23.4919 117.202 28.2875C117.488 29.6863 117.765 31.0763 118.051 32.5098C118.891 36.7928 118.614 41.3105 120.104 45.4458Z" fill="white"/>
<path d="M85.1728 133.296C86.8449 133.331 88.9588 134.773 87.7373 136.58C85.684 138.5 82.6083 138.787 80.0006 139.551C76.9336 140.255 73.9013 141.072 71.1203 142.027C66.2426 144.173 60.9144 145.841 56.7039 149.186C54.7025 151.228 52.8485 153.495 51.4363 155.997C49.617 159.872 48.8892 164.129 47.9449 168.204C45.1638 180.28 44.4361 192.651 42.1922 204.831C41.551 209.132 41.1958 213.467 40.806 217.802C40.8233 219.513 38.666 220.947 37.5311 219.227C36.5348 217.142 36.734 214.674 36.4741 212.416C36.3442 210.244 36.2662 208.037 36.1189 205.9C35.2872 197.916 33.6671 190.131 33.7017 182.104C33.3119 176.431 32.6101 170.766 31.7177 165.146C31.3452 162.739 31.1199 160.28 30.3229 157.969C29.5865 155.858 28.1396 153.808 27.2213 151.949C26.5802 150.663 26.0343 149.56 25.2373 148.404C24.241 146.962 22.5949 146.189 21.3126 145.033C18.9821 142.931 16.4869 141.263 13.5066 140.594C9.6946 139.221 5.96054 137.562 1.89726 137.101C-1.07439 136.519 -0.363966 133.296 2.7463 133.618C8.42103 133.635 13.9745 132.288 19.6665 132.523C21.7458 132.453 23.5132 131.394 25.116 130.16C25.6705 129.691 26.3809 129.309 27.0827 129.621C28.3562 125.295 29.8031 121.003 31.094 116.659C32.3762 112.333 33.5111 107.954 34.1436 103.471C35.2872 94.5054 35.7724 85.3224 37.4704 76.487C38.0509 75.4792 39.5757 75.4618 40.1649 76.487C40.572 77.1038 40.6847 77.8249 40.832 78.5373C42.2875 85.0879 42.5734 91.8209 43.8469 98.4062C45.1985 104.757 45.623 111.247 46.5587 117.658C46.8966 119.326 47.2518 121.02 48.0402 122.541C48.9845 124.235 50.466 125.573 51.8349 126.919C53.8968 128.735 56.6779 129.239 59.2683 129.865C65.8701 131.09 72.5238 131.498 79.1775 131.958C81.2135 132.21 83.1715 132.862 85.1728 133.296ZM82.0799 135.781C77.3581 134.434 72.4025 134.964 67.6461 134.208C62.1014 133.4 56.1494 133.218 51.1851 130.342C43.1885 124.869 43.3271 117.875 42.4001 109.153C41.4124 101.734 39.7836 94.4098 39.0732 86.9557C37.9123 95.1135 37.7737 103.436 35.6944 111.446C34.4901 116.32 32.7401 121.029 31.3365 125.842C30.6434 128.205 29.933 130.586 28.9107 132.836C28.5122 133.861 26.9874 134.026 26.3982 133.088C21.9797 136.954 15.9238 135.129 10.6389 136.181C13.6452 137.545 16.7469 137.944 19.4932 139.682C21.5379 141.002 23.288 142.679 25.2373 144.112C26.1903 144.738 27.1 145.563 27.7324 146.51C29.4478 149.108 30.5481 151.671 32.1076 154.277C34.5161 158.708 34.4988 163.538 35.3738 168.343C35.9803 172.73 36.5348 177.334 36.812 181.722C37.0373 185.892 37.0632 189.654 37.6004 193.676C37.7823 194.953 37.9903 196.23 38.2069 197.507C38.5707 199.723 38.9173 201.938 39.1165 204.171C41.3778 191.843 42.0449 179.715 44.8779 167.587C46.1255 162.418 46.8359 156.918 49.9289 152.479C51.8349 149.855 53.8189 147.11 56.5739 145.329C58.8265 143.861 61.287 142.896 63.7041 141.775C69.5002 138.83 75.8073 137.31 82.0799 135.781Z" fill="white"/>
<path d="M67.6459 134.208C72.4022 134.964 77.3579 134.434 82.0796 135.781C75.8071 137.31 69.4999 138.83 63.7039 141.775C61.2867 142.896 58.8262 143.86 56.5736 145.329C53.8186 147.11 51.8346 149.855 49.9286 152.479C46.8356 156.918 46.1252 162.417 44.8776 167.587C42.0446 179.715 41.3775 191.843 39.1163 204.171C38.917 201.938 38.5705 199.723 38.2066 197.507C37.99 196.23 37.7821 194.953 37.6001 193.676C37.063 189.654 37.037 185.892 36.8117 181.722C36.5345 177.334 35.98 172.73 35.3736 168.342C34.4985 163.538 34.5158 158.708 32.1073 154.277C30.5479 151.671 29.4476 149.108 27.7322 146.51C27.0997 145.563 26.19 144.738 25.237 144.112C23.2877 142.679 21.5376 141.002 19.493 139.682C16.7466 137.944 13.645 137.544 10.6387 136.18C15.9235 135.129 21.9795 136.954 26.398 133.088C26.9871 134.026 28.5119 133.861 28.9104 132.836C29.9327 130.585 30.6432 128.205 31.3363 125.842C32.7398 121.029 34.4899 116.32 35.6941 111.446C37.7734 103.436 37.912 95.1134 39.073 86.9556C39.7834 94.4097 41.4122 101.733 42.3998 109.153C43.3268 117.875 43.1882 124.869 51.1848 130.342C56.1491 133.218 62.1011 133.4 67.6459 134.208Z" fill="white"/>
</g>
<defs>
<clipPath id="clip0_15276_45054">
<rect width="158" height="220" fill="white"/>
</clipPath>
</defs>
</svg>
