<svg width="1515" height="1083" viewBox="0 0 1515 1083" fill="none" xmlns="http://www.w3.org/2000/svg">
<g clip-path="url(#clip0_85_474)">
<path d="M3.95117 7.66315C1.90073 7.66315 0.232422 5.99542 0.232422 3.94571C0.232422 1.89599 1.90073 0.232925 3.95117 0.232925C6.00161 0.232925 7.66993 1.90065 7.66993 3.95036C7.66993 6.00008 6.00161 7.6678 3.95117 7.6678V7.66315Z" fill="#8A76E8" fill-opacity="0.36"/>
<path d="M3.95176 0.465845C5.87171 0.465845 7.4375 2.02642 7.4375 3.95036C7.4375 5.8743 5.87637 7.43488 3.95176 7.43488C2.02714 7.43488 0.466009 5.86964 0.466009 3.95036C0.466009 2.03108 2.02714 0.465845 3.95176 0.465845ZM3.95176 0C1.76617 0 0 1.77021 0 3.95036C0 6.13051 1.76617 7.90072 3.95176 7.90072C6.13734 7.90072 7.90351 6.13517 7.90351 3.95036C7.90351 1.76555 6.13268 0 3.95176 0Z" fill="#271A38"/>
<path d="M723.212 284.859C721.567 284.859 720.225 283.518 720.225 281.873C720.225 280.229 721.567 278.887 723.212 278.887C724.857 278.887 726.199 280.229 726.199 281.873C726.199 283.518 724.857 284.859 723.212 284.859Z" fill="#8A76E8" fill-opacity="0.36"/>
<path d="M723.212 279.12C724.732 279.12 725.966 280.355 725.966 281.873C725.966 283.392 724.732 284.626 723.212 284.626C721.693 284.626 720.458 283.392 720.458 281.873C720.458 280.355 721.693 279.12 723.212 279.12ZM723.212 278.654C721.432 278.654 719.992 280.094 719.992 281.873C719.992 283.653 721.432 285.092 723.212 285.092C724.992 285.092 726.432 283.653 726.432 281.873C726.432 280.094 724.992 278.654 723.212 278.654Z" fill="#271A38"/>
<path d="M707.36 309.33C709.241 309.33 710.766 307.805 710.766 305.925C710.766 304.044 709.241 302.519 707.36 302.519C705.478 302.519 703.953 304.044 703.953 305.925C703.953 307.805 705.478 309.33 707.36 309.33Z" fill="#8A76E8" fill-opacity="0.36"/>
<path d="M707.36 302.752C709.108 302.752 710.534 304.173 710.534 305.925C710.534 307.676 709.112 309.097 707.36 309.097C705.608 309.097 704.187 307.676 704.187 305.925C704.187 304.173 705.608 302.752 707.36 302.752ZM707.36 302.287C705.352 302.287 703.721 303.912 703.721 305.925C703.721 307.937 705.347 309.563 707.36 309.563C709.373 309.563 711 307.937 711 305.925C711 303.912 709.373 302.287 707.36 302.287Z" fill="#271A38"/>
<path d="M662.869 381.764C660.819 381.764 659.15 380.097 659.15 378.047C659.15 375.997 660.819 374.329 662.869 374.329C664.92 374.329 666.588 375.997 666.588 378.047C666.588 380.097 664.92 381.764 662.869 381.764Z" fill="#8A76E8" fill-opacity="0.36"/>
<path d="M662.87 374.567C664.79 374.567 666.356 376.128 666.356 378.051C666.356 379.975 664.794 381.536 662.87 381.536C660.945 381.536 659.384 379.975 659.384 378.051C659.384 376.128 660.945 374.567 662.87 374.567ZM662.87 374.101C660.689 374.101 658.918 375.871 658.918 378.051C658.918 380.232 660.689 382.002 662.87 382.002C665.051 382.002 666.822 380.232 666.822 378.051C666.822 375.871 665.055 374.101 662.87 374.101Z" fill="#271A38"/>
<path d="M539.149 603.385C537.337 603.385 535.859 601.908 535.859 600.096C535.859 598.284 537.337 596.807 539.149 596.807C540.962 596.807 542.439 598.284 542.439 600.096C542.439 601.908 540.962 603.385 539.149 603.385Z" fill="#8A76E8" fill-opacity="0.36"/>
<path d="M539.15 597.036C540.837 597.036 542.207 598.405 542.207 600.092C542.207 601.778 540.837 603.147 539.15 603.147C537.463 603.147 536.093 601.778 536.093 600.092C536.093 598.405 537.463 597.036 539.15 597.036ZM539.15 596.57C537.202 596.57 535.627 598.149 535.627 600.092C535.627 602.034 537.207 603.613 539.15 603.613C541.093 603.613 542.673 602.034 542.673 600.092C542.673 598.149 541.093 596.57 539.15 596.57Z" fill="#271A38"/>
<path d="M631.534 663.554C629.913 663.554 628.594 662.235 628.594 660.614C628.594 658.993 629.913 657.675 631.534 657.675C633.156 657.675 634.475 658.993 634.475 660.614C634.475 662.235 633.156 663.554 631.534 663.554Z" fill="#8A76E8" fill-opacity="0.36"/>
<path d="M631.535 657.908C633.031 657.908 634.242 659.123 634.242 660.614C634.242 662.105 633.026 663.321 631.535 663.321C630.044 663.321 628.827 662.105 628.827 660.614C628.827 659.123 630.044 657.908 631.535 657.908ZM631.535 657.442C629.783 657.442 628.361 658.863 628.361 660.614C628.361 662.366 629.783 663.787 631.535 663.787C633.287 663.787 634.708 662.366 634.708 660.614C634.708 658.863 633.287 657.442 631.535 657.442Z" fill="#271A38"/>
<path d="M775.163 668.04C774.049 668.04 773.141 667.131 773.141 666.018C773.141 664.904 774.049 663.996 775.163 663.996C776.277 663.996 777.186 664.904 777.186 666.018C777.186 667.131 776.277 668.04 775.163 668.04Z" fill="#8A76E8" fill-opacity="0.36"/>
<path d="M775.164 664.234C776.152 664.234 776.953 665.035 776.953 666.023C776.953 667.01 776.152 667.811 775.164 667.811C774.176 667.811 773.374 667.01 773.374 666.023C773.374 665.035 774.176 664.234 775.164 664.234ZM775.164 663.768C773.919 663.768 772.908 664.779 772.908 666.023C772.908 667.266 773.919 668.277 775.164 668.277C776.408 668.277 777.419 667.266 777.419 666.023C777.419 664.779 776.408 663.768 775.164 663.768Z" fill="#271A38"/>
<path d="M899.532 522.417C897.565 522.417 895.967 520.819 895.967 518.853C895.967 516.887 897.565 515.289 899.532 515.289C901.498 515.289 903.097 516.887 903.097 518.853C903.097 520.819 901.498 522.417 899.532 522.417Z" fill="#8A76E8" fill-opacity="0.36"/>
<path d="M899.532 515.522C901.368 515.522 902.864 517.018 902.864 518.853C902.864 520.688 901.368 522.184 899.532 522.184C897.696 522.184 896.2 520.688 896.2 518.853C896.2 517.018 897.696 515.522 899.532 515.522ZM899.532 515.056C897.435 515.056 895.734 516.757 895.734 518.853C895.734 520.949 897.435 522.65 899.532 522.65C901.629 522.65 903.33 520.949 903.33 518.853C903.33 516.757 901.629 515.056 899.532 515.056Z" fill="#271A38"/>
<path d="M859.492 456.537C857.442 456.537 855.773 454.869 855.773 452.819C855.773 450.77 857.442 449.102 859.492 449.102C861.543 449.102 863.211 450.77 863.211 452.819C863.211 454.869 861.543 456.537 859.492 456.537Z" fill="#8A76E8" fill-opacity="0.36"/>
<path d="M859.493 449.335C861.413 449.335 862.979 450.896 862.979 452.819C862.979 454.743 861.417 456.304 859.493 456.304C857.568 456.304 856.007 454.743 856.007 452.819C856.007 450.896 857.568 449.335 859.493 449.335ZM859.493 448.869C857.312 448.869 855.541 450.639 855.541 452.819C855.541 455 857.307 456.77 859.493 456.77C861.678 456.77 863.445 455 863.445 452.819C863.445 450.639 861.674 448.869 859.493 448.869Z" fill="#271A38"/>
<path d="M753.396 547.162C751.415 547.162 749.803 545.55 749.803 543.571C749.803 541.591 751.415 539.979 753.396 539.979C755.376 539.979 756.989 541.591 756.989 543.571C756.989 545.55 755.376 547.162 753.396 547.162Z" fill="#8A76E8" fill-opacity="0.36"/>
<path d="M753.396 540.217C755.246 540.217 756.756 541.721 756.756 543.575C756.756 545.429 755.251 546.934 753.396 546.934C751.542 546.934 750.036 545.429 750.036 543.575C750.036 541.721 751.542 540.217 753.396 540.217ZM753.396 539.751C751.285 539.751 749.57 541.46 749.57 543.575C749.57 545.69 751.281 547.4 753.396 547.4C755.512 547.4 757.222 545.69 757.222 543.575C757.222 541.46 755.512 539.751 753.396 539.751Z" fill="#271A38"/>
<path d="M671.326 467.894C669.299 467.894 667.654 466.245 667.654 464.223C667.654 462.202 669.304 460.553 671.326 460.553C673.349 460.553 674.999 462.202 674.999 464.223C674.999 466.245 673.349 467.894 671.326 467.894Z" fill="#8A76E8" fill-opacity="0.36"/>
<path d="M671.327 460.781C673.224 460.781 674.766 462.323 674.766 464.219C674.766 466.115 673.224 467.657 671.327 467.657C669.43 467.657 667.888 466.115 667.888 464.219C667.888 462.323 669.43 460.781 671.327 460.781ZM671.327 460.315C669.169 460.315 667.422 462.062 667.422 464.219C667.422 466.376 669.169 468.122 671.327 468.122C673.485 468.122 675.232 466.376 675.232 464.219C675.232 462.062 673.485 460.315 671.327 460.315Z" fill="#271A38"/>
<path d="M690.537 383.688C688.487 383.688 686.818 382.02 686.818 379.971C686.818 377.921 688.487 376.253 690.537 376.253C692.588 376.253 694.256 377.921 694.256 379.971C694.256 382.02 692.588 383.688 690.537 383.688Z" fill="#8A76E8" fill-opacity="0.36"/>
<path d="M690.538 376.486C692.458 376.486 694.023 378.047 694.023 379.971C694.023 381.895 692.462 383.455 690.538 383.455C688.613 383.455 687.052 381.895 687.052 379.971C687.052 378.047 688.613 376.486 690.538 376.486ZM690.538 376.02C688.357 376.02 686.586 377.791 686.586 379.971C686.586 382.151 688.357 383.921 690.538 383.921C692.719 383.921 694.489 382.151 694.489 379.971C694.489 377.791 692.723 376.02 690.538 376.02Z" fill="#271A38"/>
<path d="M762.423 346.803C760.517 346.803 758.965 345.251 758.965 343.346C758.965 341.441 760.517 339.889 762.423 339.889C764.329 339.889 765.88 341.441 765.88 343.346C765.88 345.251 764.329 346.803 762.423 346.803Z" fill="#8A76E8" fill-opacity="0.36"/>
<path d="M762.423 340.118C764.203 340.118 765.648 341.567 765.648 343.341C765.648 345.116 764.199 346.565 762.423 346.565C760.648 346.565 759.198 345.116 759.198 343.341C759.198 341.567 760.648 340.118 762.423 340.118ZM762.423 339.652C760.382 339.652 758.732 341.306 758.732 343.341C758.732 345.377 760.387 347.031 762.423 347.031C764.46 347.031 766.114 345.377 766.114 343.341C766.114 341.306 764.46 339.652 762.423 339.652Z" fill="#271A38"/>
<path d="M925.853 467.787C923.393 467.787 921.389 465.784 921.389 463.324C921.389 460.865 923.393 458.862 925.853 458.862C928.314 458.862 930.317 460.865 930.317 463.324C930.317 465.784 928.314 467.787 925.853 467.787Z" fill="#8A76E8" fill-opacity="0.36"/>
<path d="M925.854 459.094C928.188 459.094 930.085 460.99 930.085 463.324C930.085 465.658 928.188 467.554 925.854 467.554C923.519 467.554 921.622 465.658 921.622 463.324C921.622 460.99 923.519 459.094 925.854 459.094ZM925.854 458.629C923.258 458.629 921.156 460.73 921.156 463.324C921.156 465.919 923.258 468.02 925.854 468.02C928.449 468.02 930.551 465.919 930.551 463.324C930.551 460.73 928.449 458.629 925.854 458.629Z" fill="#271A38"/>
<path d="M1219.25 566.667C1217.2 566.667 1215.53 565 1215.53 562.95C1215.53 560.9 1217.2 559.232 1219.25 559.232C1221.3 559.232 1222.96 560.9 1222.96 562.95C1222.96 565 1221.3 566.667 1219.25 566.667Z" fill="#8A76E8" fill-opacity="0.36"/>
<path d="M1219.25 559.465C1221.17 559.465 1222.73 561.026 1222.73 562.95C1222.73 564.874 1221.17 566.434 1219.25 566.434C1217.32 566.434 1215.76 564.874 1215.76 562.95C1215.76 561.026 1217.32 559.465 1219.25 559.465ZM1219.25 558.999C1217.07 558.999 1215.29 560.77 1215.29 562.95C1215.29 565.13 1217.07 566.9 1219.25 566.9C1221.43 566.9 1223.2 565.13 1223.2 562.95C1223.2 560.77 1221.43 558.999 1219.25 558.999Z" fill="#271A38"/>
<path d="M1314.81 503.005C1315.81 503.005 1316.62 502.196 1316.62 501.197C1316.62 500.199 1315.81 499.39 1314.81 499.39C1313.81 499.39 1313 500.199 1313 501.197C1313 502.196 1313.81 503.005 1314.81 503.005Z" fill="#8A76E8" fill-opacity="0.36"/>
<path d="M1314.81 499.623C1315.68 499.623 1316.39 500.331 1316.39 501.197C1316.39 502.064 1315.68 502.772 1314.81 502.772C1313.94 502.772 1313.24 502.064 1313.24 501.197C1313.24 500.331 1313.94 499.623 1314.81 499.623ZM1314.81 499.157C1313.68 499.157 1312.77 500.07 1312.77 501.197C1312.77 502.325 1313.68 503.238 1314.81 503.238C1315.94 503.238 1316.85 502.325 1316.85 501.197C1316.85 500.07 1315.94 499.157 1314.81 499.157Z" fill="#271A38"/>
<path d="M1153 350.767C1150.95 350.767 1149.29 349.099 1149.29 347.049C1149.29 345 1150.95 343.332 1153 343.332C1155.05 343.332 1156.72 345 1156.72 347.049C1156.72 349.099 1155.05 350.767 1153 350.767Z" fill="#8A76E8" fill-opacity="0.36"/>
<path d="M1153 343.57C1154.92 343.57 1156.49 345.13 1156.49 347.054C1156.49 348.978 1154.93 350.539 1153 350.539C1151.08 350.539 1149.52 348.978 1149.52 347.054C1149.52 345.13 1151.08 343.57 1153 343.57ZM1153 343.104C1150.82 343.104 1149.05 344.874 1149.05 347.054C1149.05 349.234 1150.82 351.004 1153 351.004C1155.19 351.004 1156.96 349.234 1156.96 347.054C1156.96 344.874 1155.19 343.104 1153 343.104Z" fill="#271A38"/>
<path d="M957.225 406.626C955.598 406.626 954.279 405.303 954.279 403.682C954.279 402.061 955.603 400.738 957.225 400.738C958.846 400.738 960.17 402.061 960.17 403.682C960.17 405.303 958.846 406.626 957.225 406.626Z" fill="#8A76E8" fill-opacity="0.36"/>
<path d="M957.225 400.971C958.721 400.971 959.937 402.187 959.937 403.682C959.937 405.178 958.721 406.393 957.225 406.393C955.729 406.393 954.513 405.178 954.513 403.682C954.513 402.187 955.729 400.971 957.225 400.971ZM957.225 400.505C955.468 400.505 954.047 401.931 954.047 403.682C954.047 405.434 955.473 406.859 957.225 406.859C958.977 406.859 960.403 405.434 960.403 403.682C960.403 401.931 958.982 400.505 957.225 400.505Z" fill="#271A38"/>
<path d="M917.959 508.218C919.812 508.218 921.314 506.716 921.314 504.864C921.314 503.011 919.812 501.51 917.959 501.51C916.106 501.51 914.604 503.011 914.604 504.864C914.604 506.716 916.106 508.218 917.959 508.218Z" fill="#8A76E8" fill-opacity="0.36"/>
<path d="M917.959 501.743C919.679 501.743 921.082 503.14 921.082 504.864C921.082 506.587 919.684 507.985 917.959 507.985C916.235 507.985 914.837 506.587 914.837 504.864C914.837 503.14 916.235 501.743 917.959 501.743ZM917.959 501.277C915.979 501.277 914.371 502.884 914.371 504.864C914.371 506.843 915.979 508.451 917.959 508.451C919.94 508.451 921.548 506.843 921.548 504.864C921.548 502.884 919.94 501.277 917.959 501.277Z" fill="#271A38"/>
<path d="M893.636 572.388C895.482 572.388 896.978 570.892 896.978 569.048C896.978 567.203 895.482 565.708 893.636 565.708C891.791 565.708 890.295 567.203 890.295 569.048C890.295 570.892 891.791 572.388 893.636 572.388Z" fill="#8A76E8" fill-opacity="0.36"/>
<path d="M893.637 565.941C895.352 565.941 896.745 567.333 896.745 569.048C896.745 570.762 895.352 572.155 893.637 572.155C891.922 572.155 890.529 570.762 890.529 569.048C890.529 567.333 891.922 565.941 893.637 565.941ZM893.637 565.475C891.666 565.475 890.062 567.073 890.062 569.048C890.062 571.023 891.661 572.621 893.637 572.621C895.613 572.621 897.211 571.023 897.211 569.048C897.211 567.073 895.613 565.475 893.637 565.475Z" fill="#271A38"/>
<path d="M771.486 685.048C770.316 685.048 769.365 684.097 769.365 682.928C769.365 681.759 770.316 680.808 771.486 680.808C772.655 680.808 773.606 681.759 773.606 682.928C773.606 684.097 772.655 685.048 771.486 685.048Z" fill="#8A76E8" fill-opacity="0.36"/>
<path d="M771.486 681.041C772.525 681.041 773.373 681.889 773.373 682.928C773.373 683.967 772.525 684.815 771.486 684.815C770.447 684.815 769.599 683.967 769.599 682.928C769.599 681.889 770.447 681.041 771.486 681.041ZM771.486 680.576C770.186 680.576 769.133 681.628 769.133 682.928C769.133 684.228 770.186 685.281 771.486 685.281C772.786 685.281 773.839 684.228 773.839 682.928C773.839 681.628 772.786 680.576 771.486 680.576Z" fill="#271A38"/>
<path d="M677.153 667.499C675.186 667.499 673.588 665.901 673.588 663.936C673.588 661.97 675.186 660.372 677.153 660.372C679.119 660.372 680.718 661.97 680.718 663.936C680.718 665.901 679.119 667.499 677.153 667.499Z" fill="#8A76E8" fill-opacity="0.36"/>
<path d="M677.153 660.605C678.99 660.605 680.485 662.1 680.485 663.936C680.485 665.771 678.99 667.266 677.153 667.266C675.317 667.266 673.821 665.771 673.821 663.936C673.821 662.1 675.317 660.605 677.153 660.605ZM677.153 660.139C675.056 660.139 673.355 661.839 673.355 663.936C673.355 666.032 675.056 667.732 677.153 667.732C679.25 667.732 680.951 666.032 680.951 663.936C680.951 661.839 679.25 660.139 677.153 660.139Z" fill="#271A38"/>
<path d="M573.298 645.67C571.248 645.67 569.584 644.002 569.584 641.957C569.584 639.912 571.252 638.244 573.298 638.244C575.344 638.244 577.012 639.912 577.012 641.957C577.012 644.002 575.344 645.67 573.298 645.67Z" fill="#8A76E8" fill-opacity="0.36"/>
<path d="M573.299 638.472C575.219 638.472 576.78 640.033 576.78 641.952C576.78 643.872 575.219 645.432 573.299 645.432C571.379 645.432 569.818 643.872 569.818 641.952C569.818 640.033 571.379 638.472 573.299 638.472ZM573.299 638.007C571.118 638.007 569.352 639.772 569.352 641.952C569.352 644.133 571.118 645.898 573.299 645.898C575.48 645.898 577.246 644.133 577.246 641.952C577.246 639.772 575.48 638.007 573.299 638.007Z" fill="#271A38"/>
<path d="M620.183 546.734C618.566 546.734 617.252 545.42 617.252 543.804C617.252 542.187 618.566 540.873 620.183 540.873C621.8 540.873 623.114 542.187 623.114 543.804C623.114 545.42 621.8 546.734 620.183 546.734Z" fill="#8A76E8" fill-opacity="0.36"/>
<path d="M620.184 541.102C621.675 541.102 622.882 542.313 622.882 543.799C622.882 545.285 621.67 546.496 620.184 546.496C618.697 546.496 617.486 545.285 617.486 543.799C617.486 542.313 618.697 541.102 620.184 541.102ZM620.184 540.636C618.436 540.636 617.02 542.052 617.02 543.799C617.02 545.546 618.436 546.962 620.184 546.962C621.931 546.962 623.348 545.546 623.348 543.799C623.348 542.052 621.931 540.636 620.184 540.636Z" fill="#271A38"/>
<path d="M650.623 367.514C648.573 367.514 646.904 365.846 646.904 363.797C646.904 361.747 648.573 360.079 650.623 360.079C652.673 360.079 654.342 361.747 654.342 363.797C654.342 365.846 652.673 367.514 650.623 367.514Z" fill="#8A76E8" fill-opacity="0.36"/>
<path d="M650.624 360.317C652.544 360.317 654.109 361.877 654.109 363.801C654.109 365.725 652.548 367.286 650.624 367.286C648.699 367.286 647.138 365.725 647.138 363.801C647.138 361.877 648.699 360.317 650.624 360.317ZM650.624 359.851C648.443 359.851 646.672 361.616 646.672 363.801C646.672 365.986 648.438 367.752 650.624 367.752C652.809 367.752 654.575 365.986 654.575 363.801C654.575 361.616 652.805 359.851 650.624 359.851Z" fill="#271A38"/>
<path d="M516.421 86.9033C514.371 86.9033 512.707 85.2356 512.707 83.1905C512.707 81.1455 514.375 79.4777 516.421 79.4777C518.467 79.4777 520.135 81.1455 520.135 83.1905C520.135 85.2356 518.467 86.9033 516.421 86.9033Z" fill="#8A76E8" fill-opacity="0.36"/>
<path d="M516.422 79.7107C518.342 79.7107 519.903 81.2712 519.903 83.1905C519.903 85.1098 518.342 86.6704 516.422 86.6704C514.502 86.6704 512.941 85.1098 512.941 83.1905C512.941 81.2712 514.502 79.7107 516.422 79.7107ZM516.422 79.2448C514.241 79.2448 512.475 81.0104 512.475 83.1905C512.475 85.3707 514.241 87.1362 516.422 87.1362C518.603 87.1362 520.369 85.3707 520.369 83.1905C520.369 81.0104 518.603 79.2448 516.422 79.2448Z" fill="#271A38"/>
<path d="M303.772 445.878C302.267 445.878 301.041 444.653 301.041 443.149C301.041 441.644 302.267 440.419 303.772 440.419C305.277 440.419 306.503 441.644 306.503 443.149C306.503 444.653 305.277 445.878 303.772 445.878Z" fill="#8A76E8" fill-opacity="0.36"/>
<path d="M303.772 440.652C305.152 440.652 306.27 441.774 306.27 443.149C306.27 444.523 305.147 445.646 303.772 445.646C302.398 445.646 301.275 444.523 301.275 443.149C301.275 441.774 302.398 440.652 303.772 440.652ZM303.772 440.186C302.137 440.186 300.809 441.513 300.809 443.149C300.809 444.784 302.137 446.111 303.772 446.111C305.408 446.111 306.736 444.784 306.736 443.149C306.736 441.513 305.408 440.186 303.772 440.186Z" fill="#271A38"/>
<path d="M302.92 555.412C300.87 555.412 299.201 553.745 299.201 551.695C299.201 549.645 300.87 547.978 302.92 547.978C304.97 547.978 306.639 549.645 306.639 551.695C306.639 553.745 304.97 555.412 302.92 555.412Z" fill="#8A76E8" fill-opacity="0.36"/>
<path d="M302.921 548.21C304.84 548.21 306.406 549.771 306.406 551.695C306.406 553.619 304.845 555.179 302.921 555.179C300.996 555.179 299.435 553.619 299.435 551.695C299.435 549.771 300.996 548.21 302.921 548.21ZM302.921 547.745C300.74 547.745 298.969 549.515 298.969 551.695C298.969 553.875 300.74 555.645 302.921 555.645C305.101 555.645 306.872 553.875 306.872 551.695C306.872 549.515 305.106 547.745 302.921 547.745Z" fill="#271A38"/>
<path d="M425.107 660.936C423.057 660.936 421.389 659.268 421.389 657.218C421.389 655.168 423.057 653.501 425.107 653.501C427.158 653.501 428.826 655.168 428.826 657.218C428.826 659.268 427.158 660.936 425.107 660.936Z" fill="#8A76E8" fill-opacity="0.36"/>
<path d="M425.108 653.734C427.028 653.734 428.594 655.294 428.594 657.218C428.594 659.142 427.033 660.703 425.108 660.703C423.183 660.703 421.622 659.142 421.622 657.218C421.622 655.294 423.183 653.734 425.108 653.734ZM425.108 653.268C422.927 653.268 421.156 655.038 421.156 657.218C421.156 659.398 422.922 661.168 425.108 661.168C427.294 661.168 429.06 659.398 429.06 657.218C429.06 655.038 427.294 653.268 425.108 653.268Z" fill="#271A38"/>
<path d="M294.531 906.091C292.708 906.091 291.227 904.609 291.227 902.788C291.227 900.967 292.708 899.485 294.531 899.485C296.353 899.485 297.835 900.967 297.835 902.788C297.835 904.609 296.353 906.091 294.531 906.091Z" fill="#8A76E8" fill-opacity="0.36"/>
<path d="M294.531 899.718C296.223 899.718 297.602 901.097 297.602 902.788C297.602 904.479 296.223 905.858 294.531 905.858C292.84 905.858 291.46 904.479 291.46 902.788C291.46 901.097 292.84 899.718 294.531 899.718ZM294.531 899.252C292.579 899.252 290.994 900.836 290.994 902.788C290.994 904.74 292.579 906.324 294.531 906.324C296.484 906.324 298.068 904.74 298.068 902.788C298.068 900.836 296.484 899.252 294.531 899.252Z" fill="#271A38"/>
<path d="M433.327 915.739C431.347 915.739 429.734 914.127 429.734 912.147C429.734 910.167 431.347 908.555 433.327 908.555C435.308 908.555 436.92 910.167 436.92 912.147C436.92 914.127 435.308 915.739 433.327 915.739Z" fill="#8A76E8" fill-opacity="0.36"/>
<path d="M433.328 908.783C435.183 908.783 436.688 910.293 436.688 912.142C436.688 913.992 435.183 915.501 433.328 915.501C431.473 915.501 429.968 913.992 429.968 912.142C429.968 910.293 431.478 908.783 433.328 908.783ZM433.328 908.318C431.212 908.318 429.502 910.032 429.502 912.142C429.502 914.252 431.217 915.967 433.328 915.967C435.439 915.967 437.154 914.252 437.154 912.142C437.154 910.032 435.439 908.318 433.328 908.318Z" fill="#271A38"/>
<path d="M482.611 967.666C480.561 967.666 478.893 965.998 478.893 963.949C478.893 961.899 480.561 960.231 482.611 960.231C484.662 960.231 486.33 961.899 486.33 963.949C486.33 965.998 484.662 967.666 482.611 967.666Z" fill="#8A76E8" fill-opacity="0.36"/>
<path d="M482.612 960.469C484.532 960.469 486.098 962.029 486.098 963.953C486.098 965.877 484.537 967.438 482.612 967.438C480.687 967.438 479.126 965.877 479.126 963.953C479.126 962.029 480.687 960.469 482.612 960.469ZM482.612 960.003C480.431 960.003 478.66 961.773 478.66 963.953C478.66 966.134 480.431 967.904 482.612 967.904C484.793 967.904 486.564 966.134 486.564 963.953C486.564 961.773 484.797 960.003 482.612 960.003Z" fill="#271A38"/>
<path d="M782.377 1039.1C780.327 1039.1 778.658 1037.43 778.658 1035.38C778.658 1033.33 780.327 1031.66 782.377 1031.66C784.427 1031.66 786.096 1033.33 786.096 1035.38C786.096 1037.43 784.427 1039.1 782.377 1039.1Z" fill="#8A76E8" fill-opacity="0.36"/>
<path d="M782.378 1031.9C784.297 1031.9 785.863 1033.46 785.863 1035.39C785.863 1037.31 784.302 1038.87 782.378 1038.87C780.453 1038.87 778.892 1037.31 778.892 1035.39C778.892 1033.46 780.453 1031.9 782.378 1031.9ZM782.378 1031.44C780.197 1031.44 778.426 1033.21 778.426 1035.39C778.426 1037.57 780.197 1039.34 782.378 1039.34C784.558 1039.34 786.329 1037.57 786.329 1035.39C786.329 1033.21 784.563 1031.44 782.378 1031.44Z" fill="#271A38"/>
<path d="M916.154 1082.77C914.104 1082.77 912.436 1081.1 912.436 1079.05C912.436 1077 914.104 1075.33 916.154 1075.33C918.205 1075.33 919.873 1077 919.873 1079.05C919.873 1081.1 918.205 1082.77 916.154 1082.77Z" fill="#8A76E8" fill-opacity="0.36"/>
<path d="M916.155 1075.57C918.075 1075.57 919.641 1077.13 919.641 1079.05C919.641 1080.98 918.079 1082.54 916.155 1082.54C914.23 1082.54 912.669 1080.98 912.669 1079.05C912.669 1077.13 914.23 1075.57 916.155 1075.57ZM916.155 1075.1C913.974 1075.1 912.203 1076.87 912.203 1079.05C912.203 1081.23 913.969 1083 916.155 1083C918.34 1083 920.107 1081.23 920.107 1079.05C920.107 1076.87 918.336 1075.1 916.155 1075.1Z" fill="#271A38"/>
<path d="M1057.44 1075.19C1055.39 1075.19 1053.72 1073.52 1053.72 1071.47C1053.72 1069.43 1055.39 1067.76 1057.44 1067.76C1059.49 1067.76 1061.16 1069.43 1061.16 1071.47C1061.16 1073.52 1059.49 1075.19 1057.44 1075.19Z" fill="#8A76E8" fill-opacity="0.36"/>
<path d="M1057.44 1067.99C1059.36 1067.99 1060.93 1069.55 1060.93 1071.48C1060.93 1073.4 1059.36 1074.96 1057.44 1074.96C1055.52 1074.96 1053.95 1073.4 1053.95 1071.48C1053.95 1069.55 1055.52 1067.99 1057.44 1067.99ZM1057.44 1067.52C1055.26 1067.52 1053.49 1069.29 1053.49 1071.48C1053.49 1073.66 1055.26 1075.43 1057.44 1075.43C1059.62 1075.43 1061.39 1073.66 1061.39 1071.48C1061.39 1069.29 1059.63 1067.52 1057.44 1067.52Z" fill="#271A38"/>
<path d="M1189.1 964.265C1187.65 964.265 1186.47 963.092 1186.47 961.643C1186.47 960.194 1187.65 959.02 1189.1 959.02C1190.55 959.02 1191.72 960.194 1191.72 961.643C1191.72 963.092 1190.55 964.265 1189.1 964.265Z" fill="#8A76E8" fill-opacity="0.36"/>
<path d="M1189.1 959.253C1190.42 959.253 1191.49 960.324 1191.49 961.643C1191.49 962.961 1190.42 964.033 1189.1 964.033C1187.78 964.033 1186.71 962.961 1186.71 961.643C1186.71 960.324 1187.78 959.253 1189.1 959.253ZM1189.1 958.787C1187.52 958.787 1186.24 960.064 1186.24 961.643C1186.24 963.222 1187.52 964.498 1189.1 964.498C1190.68 964.498 1191.95 963.222 1191.95 961.643C1191.95 960.064 1190.68 958.787 1189.1 958.787Z" fill="#271A38"/>
<path d="M1376.4 761.656C1374.89 761.656 1373.66 760.431 1373.66 758.921C1373.66 757.412 1374.89 756.187 1376.4 756.187C1377.91 756.187 1379.14 757.412 1379.14 758.921C1379.14 760.431 1377.91 761.656 1376.4 761.656Z" fill="#8A76E8" fill-opacity="0.36"/>
<path d="M1376.4 756.415C1377.78 756.415 1378.9 757.538 1378.9 758.917C1378.9 760.296 1377.78 761.418 1376.4 761.418C1375.02 761.418 1373.9 760.296 1373.9 758.917C1373.9 757.538 1375.02 756.415 1376.4 756.415ZM1376.4 755.949C1374.76 755.949 1373.43 757.277 1373.43 758.917C1373.43 760.556 1374.76 761.884 1376.4 761.884C1378.04 761.884 1379.37 760.556 1379.37 758.917C1379.37 757.277 1378.04 755.949 1376.4 755.949Z" fill="#271A38"/>
<path d="M1395.39 718.397C1394.04 718.397 1392.93 717.293 1392.93 715.938C1392.93 714.582 1394.04 713.478 1395.39 713.478C1396.75 713.478 1397.85 714.582 1397.85 715.938C1397.85 717.293 1396.75 718.397 1395.39 718.397Z" fill="#8A76E8" fill-opacity="0.36"/>
<path d="M1395.39 713.706C1396.62 713.706 1397.62 714.708 1397.62 715.933C1397.62 717.158 1396.62 718.16 1395.39 718.16C1394.17 718.16 1393.17 717.158 1393.17 715.933C1393.17 714.708 1394.17 713.706 1395.39 713.706ZM1395.39 713.241C1393.91 713.241 1392.7 714.447 1392.7 715.933C1392.7 717.419 1393.91 718.626 1395.39 718.626C1396.88 718.626 1398.09 717.419 1398.09 715.933C1398.09 714.447 1396.88 713.241 1395.39 713.241Z" fill="#271A38"/>
<path d="M1288.17 625.238C1290.23 625.238 1291.89 623.574 1291.89 621.52C1291.89 619.467 1290.23 617.803 1288.17 617.803C1286.12 617.803 1284.46 619.467 1284.46 621.52C1284.46 623.574 1286.12 625.238 1288.17 625.238Z" fill="#8A76E8" fill-opacity="0.36"/>
<path d="M1288.17 618.036C1290.09 618.036 1291.66 619.597 1291.66 621.521C1291.66 623.444 1290.1 625.005 1288.17 625.005C1286.25 625.005 1284.69 623.444 1284.69 621.521C1284.69 619.597 1286.25 618.036 1288.17 618.036ZM1288.17 617.57C1285.99 617.57 1284.22 619.336 1284.22 621.521C1284.22 623.705 1285.99 625.471 1288.17 625.471C1290.36 625.471 1292.13 623.705 1292.13 621.521C1292.13 619.336 1290.36 617.57 1288.17 617.57Z" fill="#271A38"/>
<path d="M971.623 785.377C973.677 785.377 975.342 783.712 975.342 781.659C975.342 779.606 973.677 777.942 971.623 777.942C969.569 777.942 967.904 779.606 967.904 781.659C967.904 783.712 969.569 785.377 971.623 785.377Z" fill="#8A76E8" fill-opacity="0.36"/>
<path d="M971.624 778.175C973.544 778.175 975.109 779.735 975.109 781.659C975.109 783.583 973.548 785.144 971.624 785.144C969.699 785.144 968.138 783.583 968.138 781.659C968.138 779.735 969.699 778.175 971.624 778.175ZM971.624 777.709C969.443 777.709 967.672 779.479 967.672 781.659C967.672 783.839 969.443 785.61 971.624 785.61C973.805 785.61 975.575 783.839 975.575 781.659C975.575 779.479 973.809 777.709 971.624 777.709Z" fill="#271A38"/>
<path d="M811.609 941.63C809.559 941.63 807.891 939.962 807.891 937.913C807.891 935.863 809.559 934.195 811.609 934.195C813.66 934.195 815.328 935.863 815.328 937.913C815.328 939.962 813.66 941.63 811.609 941.63Z" fill="#8A76E8" fill-opacity="0.36"/>
<path d="M811.61 934.433C813.53 934.433 815.096 935.993 815.096 937.917C815.096 939.841 813.535 941.402 811.61 941.402C809.685 941.402 808.124 939.841 808.124 937.917C808.124 935.993 809.685 934.433 811.61 934.433ZM811.61 933.967C809.429 933.967 807.658 935.737 807.658 937.917C807.658 940.098 809.424 941.868 811.61 941.868C813.796 941.868 815.562 940.098 815.562 937.917C815.562 935.737 813.791 933.967 811.61 933.967Z" fill="#271A38"/>
<path d="M630.896 925.368C628.846 925.368 627.178 923.7 627.178 921.65C627.178 919.6 628.846 917.933 630.896 917.933C632.947 917.933 634.615 919.6 634.615 921.65C634.615 923.7 632.947 925.368 630.896 925.368Z" fill="#8A76E8" fill-opacity="0.36"/>
<path d="M630.897 918.17C632.817 918.17 634.383 919.731 634.383 921.655C634.383 923.579 632.822 925.139 630.897 925.139C628.972 925.139 627.411 923.579 627.411 921.655C627.411 919.731 628.972 918.17 630.897 918.17ZM630.897 917.704C628.716 917.704 626.945 919.475 626.945 921.655C626.945 923.835 628.716 925.605 630.897 925.605C633.078 925.605 634.849 923.835 634.849 921.655C634.849 919.475 633.083 917.704 630.897 917.704Z" fill="#271A38"/>
<path d="M439.488 979.089C437.903 979.089 436.617 977.803 436.617 976.219C436.617 974.635 437.903 973.349 439.488 973.349C441.072 973.349 442.358 974.635 442.358 976.219C442.358 977.803 441.072 979.089 439.488 979.089Z" fill="#8A76E8" fill-opacity="0.36"/>
<path d="M439.488 973.583C440.942 973.583 442.126 974.766 442.126 976.219C442.126 977.673 440.942 978.856 439.488 978.856C438.034 978.856 436.851 977.673 436.851 976.219C436.851 974.766 438.034 973.583 439.488 973.583ZM439.488 973.117C437.773 973.117 436.385 974.505 436.385 976.219C436.385 977.934 437.773 979.322 439.488 979.322C441.203 979.322 442.592 977.934 442.592 976.219C442.592 974.505 441.203 973.117 439.488 973.117Z" fill="#271A38"/>
<path d="M356.395 978.162C354.344 978.162 352.676 976.494 352.676 974.444C352.676 972.395 354.344 970.727 356.395 970.727C358.445 970.727 360.113 972.395 360.113 974.444C360.113 976.494 358.445 978.162 356.395 978.162Z" fill="#8A76E8" fill-opacity="0.36"/>
<path d="M356.395 970.965C358.315 970.965 359.881 972.525 359.881 974.449C359.881 976.373 358.32 977.934 356.395 977.934C354.471 977.934 352.909 976.373 352.909 974.449C352.909 972.525 354.471 970.965 356.395 970.965ZM356.395 970.499C354.214 970.499 352.443 972.269 352.443 974.449C352.443 976.629 354.21 978.399 356.395 978.399C358.581 978.399 360.347 976.629 360.347 974.449C360.347 972.269 358.576 970.499 356.395 970.499Z" fill="#271A38"/>
<path d="M132.695 866.322C130.645 866.322 128.977 864.654 128.977 862.604C128.977 860.555 130.645 858.887 132.695 858.887C134.746 858.887 136.414 860.555 136.414 862.604C136.414 864.654 134.746 866.322 132.695 866.322Z" fill="#8A76E8" fill-opacity="0.36"/>
<path d="M132.696 859.124C134.616 859.124 136.182 860.685 136.182 862.609C136.182 864.533 134.621 866.093 132.696 866.093C130.771 866.093 129.21 864.533 129.21 862.609C129.21 860.685 130.771 859.124 132.696 859.124ZM132.696 858.659C130.515 858.659 128.744 860.429 128.744 862.609C128.744 864.789 130.51 866.559 132.696 866.559C134.881 866.559 136.648 864.789 136.648 862.609C136.648 860.429 134.881 858.659 132.696 858.659Z" fill="#271A38"/>
<path d="M275.592 733.673C273.541 733.673 271.873 732.005 271.873 729.955C271.873 727.905 273.541 726.238 275.592 726.238C277.642 726.238 279.311 727.905 279.311 729.955C279.311 732.005 277.642 733.673 275.592 733.673Z" fill="#8A76E8" fill-opacity="0.36"/>
<path d="M275.592 726.475C277.512 726.475 279.078 728.036 279.078 729.96C279.078 731.884 277.517 733.444 275.592 733.444C273.668 733.444 272.107 731.884 272.107 729.96C272.107 728.036 273.668 726.475 275.592 726.475ZM275.592 726.009C273.411 726.009 271.641 727.775 271.641 729.96C271.641 732.145 273.407 733.91 275.592 733.91C277.778 733.91 279.544 732.145 279.544 729.96C279.544 727.775 277.773 726.009 275.592 726.009Z" fill="#271A38"/>
<path d="M616.687 620.659C614.446 620.659 612.619 618.837 612.619 616.592C612.619 614.346 614.441 612.525 616.687 612.525C618.934 612.525 620.756 614.346 620.756 616.592C620.756 618.837 618.934 620.659 616.687 620.659Z" fill="#8A76E8" fill-opacity="0.36"/>
<path d="M616.688 612.758C618.804 612.758 620.523 614.477 620.523 616.592C620.523 618.707 618.804 620.426 616.688 620.426C614.572 620.426 612.853 618.707 612.853 616.592C612.853 614.477 614.572 612.758 616.688 612.758ZM616.688 612.292C614.311 612.292 612.387 614.216 612.387 616.592C612.387 618.968 614.311 620.892 616.688 620.892C619.065 620.892 620.989 618.968 620.989 616.592C620.989 614.216 619.065 612.292 616.688 612.292Z" fill="#271A38"/>
<path d="M661.029 484.306C659.141 484.306 657.604 482.769 657.604 480.882C657.604 478.995 659.141 477.458 661.029 477.458C662.916 477.458 664.454 478.995 664.454 480.882C664.454 482.769 662.916 484.306 661.029 484.306Z" fill="#8A76E8" fill-opacity="0.36"/>
<path d="M661.029 477.686C662.791 477.686 664.221 479.116 664.221 480.877C664.221 482.638 662.791 484.068 661.029 484.068C659.268 484.068 657.837 482.638 657.837 480.877C657.837 479.116 659.268 477.686 661.029 477.686ZM661.029 477.22C659.007 477.22 657.371 478.86 657.371 480.877C657.371 482.894 659.011 484.534 661.029 484.534C663.047 484.534 664.687 482.894 664.687 480.877C664.687 478.86 663.047 477.22 661.029 477.22Z" fill="#271A38"/>
<path d="M461.558 78.4901C459.666 78.4901 458.123 76.9482 458.123 75.0569C458.123 73.1655 459.666 71.6236 461.558 71.6236C463.45 71.6236 464.992 73.1655 464.992 75.0569C464.992 76.9482 463.45 78.4901 461.558 78.4901Z" fill="#8A76E8" fill-opacity="0.36"/>
<path d="M461.558 71.8565C463.324 71.8565 464.76 73.2913 464.76 75.0569C464.76 76.8224 463.324 78.2572 461.558 78.2572C459.792 78.2572 458.357 76.8224 458.357 75.0569C458.357 73.2913 459.792 71.8565 461.558 71.8565ZM461.558 71.3907C459.531 71.3907 457.891 73.0304 457.891 75.0569C457.891 77.0833 459.531 78.7231 461.558 78.7231C463.585 78.7231 465.226 77.0833 465.226 75.0569C465.226 73.0304 463.585 71.3907 461.558 71.3907Z" fill="#271A38"/>
<path d="M391.652 41.0223C389.574 41.0223 387.887 39.3313 387.887 37.2582C387.887 35.1852 389.578 33.4942 391.652 33.4942C393.726 33.4942 395.417 35.1852 395.417 37.2582C395.417 39.3313 393.726 41.0223 391.652 41.0223Z" fill="#8A76E8" fill-opacity="0.36"/>
<path d="M391.653 33.7225C393.601 33.7225 395.185 35.3064 395.185 37.2536C395.185 39.2008 393.601 40.7847 391.653 40.7847C389.705 40.7847 388.12 39.2008 388.12 37.2536C388.12 35.3064 389.705 33.7225 391.653 33.7225ZM391.653 33.2566C389.444 33.2566 387.654 35.0455 387.654 37.2536C387.654 39.4617 389.444 41.2505 391.653 41.2505C393.862 41.2505 395.651 39.4617 395.651 37.2536C395.651 35.0455 393.862 33.2566 391.653 33.2566Z" fill="#271A38"/>
<path d="M262.139 36.3778C260.088 36.3778 258.42 34.7101 258.42 32.6604C258.42 30.6106 260.088 28.9429 262.139 28.9429C264.189 28.9429 265.857 30.6106 265.857 32.6604C265.857 34.7101 264.189 36.3778 262.139 36.3778Z" fill="#8A76E8" fill-opacity="0.36"/>
<path d="M262.139 29.1758C264.059 29.1758 265.625 30.7364 265.625 32.6604C265.625 34.5843 264.064 36.1449 262.139 36.1449C260.215 36.1449 258.654 34.5843 258.654 32.6604C258.654 30.7364 260.215 29.1758 262.139 29.1758ZM262.139 28.71C259.958 28.71 258.188 30.4802 258.188 32.6604C258.188 34.8405 259.954 36.6107 262.139 36.6107C264.325 36.6107 266.091 34.8452 266.091 32.6604C266.091 30.4755 264.325 28.71 262.139 28.71Z" fill="#271A38"/>
<path d="M489.207 23.991C487.157 23.991 485.488 22.3233 485.488 20.2736C485.488 18.2238 487.157 16.5561 489.207 16.5561C491.257 16.5561 492.926 18.2238 492.926 20.2736C492.926 22.3233 491.257 23.991 489.207 23.991Z" fill="#8A76E8" fill-opacity="0.36"/>
<path d="M489.208 16.7937C491.128 16.7937 492.693 18.3543 492.693 20.2782C492.693 22.2021 491.132 23.7627 489.208 23.7627C487.283 23.7627 485.722 22.2021 485.722 20.2782C485.722 18.3543 487.283 16.7937 489.208 16.7937ZM489.208 16.3279C487.027 16.3279 485.256 18.0934 485.256 20.2782C485.256 22.463 487.027 24.2286 489.208 24.2286C491.389 24.2286 493.159 22.4584 493.159 20.2782C493.159 18.0981 491.393 16.3279 489.208 16.3279Z" fill="#271A38"/>
<path d="M729.83 149.559C727.85 149.559 726.242 147.952 726.242 145.972C726.242 143.993 727.85 142.385 729.83 142.385C731.811 142.385 733.419 143.993 733.419 145.972C733.419 147.952 731.811 149.559 729.83 149.559Z" fill="#8A76E8" fill-opacity="0.36"/>
<path d="M729.831 142.618C731.681 142.618 733.186 144.123 733.186 145.972C733.186 147.822 731.681 149.326 729.831 149.326C727.981 149.326 726.476 147.822 726.476 145.972C726.476 144.123 727.981 142.618 729.831 142.618ZM729.831 142.152C727.72 142.152 726.01 143.862 726.01 145.972C726.01 148.083 727.72 149.792 729.831 149.792C731.942 149.792 733.652 148.083 733.652 145.972C733.652 143.862 731.942 142.152 729.831 142.152Z" fill="#271A38"/>
<path d="M860.457 278.528C862.511 278.528 864.176 276.864 864.176 274.811C864.176 272.758 862.511 271.094 860.457 271.094C858.403 271.094 856.738 272.758 856.738 274.811C856.738 276.864 858.403 278.528 860.457 278.528Z" fill="#8A76E8" fill-opacity="0.36"/>
<path d="M860.458 271.326C862.378 271.326 863.943 272.887 863.943 274.811C863.943 276.735 862.382 278.296 860.458 278.296C858.533 278.296 856.972 276.735 856.972 274.811C856.972 272.887 858.533 271.326 860.458 271.326ZM860.458 270.861C858.277 270.861 856.506 272.631 856.506 274.811C856.506 276.991 858.277 278.761 860.458 278.761C862.639 278.761 864.409 276.991 864.409 274.811C864.409 272.631 862.643 270.861 860.458 270.861Z" fill="#271A38"/>
<path d="M981.256 176.704C979.55 176.704 978.166 175.316 978.166 173.616C978.166 171.915 979.555 170.527 981.256 170.527C982.957 170.527 984.345 171.915 984.345 173.616C984.345 175.316 982.957 176.704 981.256 176.704Z" fill="#8A76E8" fill-opacity="0.36"/>
<path d="M981.256 170.755C982.831 170.755 984.113 172.036 984.113 173.611C984.113 175.185 982.831 176.467 981.256 176.467C979.681 176.467 978.4 175.185 978.4 173.611C978.4 172.036 979.681 170.755 981.256 170.755ZM981.256 170.289C979.42 170.289 977.934 171.775 977.934 173.611C977.934 175.446 979.42 176.932 981.256 176.932C983.092 176.932 984.579 175.446 984.579 173.611C984.579 171.775 983.092 170.289 981.256 170.289Z" fill="#271A38"/>
<path d="M1168.8 152.257C1166.75 152.257 1165.08 150.589 1165.08 148.539C1165.08 146.489 1166.75 144.822 1168.8 144.822C1170.85 144.822 1172.52 146.489 1172.52 148.539C1172.52 150.589 1170.85 152.257 1168.8 152.257Z" fill="#8A76E8" fill-opacity="0.36"/>
<path d="M1168.8 145.055C1170.72 145.055 1172.28 146.615 1172.28 148.539C1172.28 150.463 1170.72 152.024 1168.8 152.024C1166.87 152.024 1165.31 150.463 1165.31 148.539C1165.31 146.615 1166.87 145.055 1168.8 145.055ZM1168.8 144.589C1166.62 144.589 1164.85 146.359 1164.85 148.539C1164.85 150.719 1166.62 152.49 1168.8 152.49C1170.98 152.49 1172.75 150.724 1172.75 148.539C1172.75 146.354 1170.98 144.589 1168.8 144.589Z" fill="#271A38"/>
<path d="M1352.62 314.277C1354.91 314.277 1356.77 312.419 1356.77 310.127C1356.77 307.834 1354.91 305.976 1352.62 305.976C1350.33 305.976 1348.47 307.834 1348.47 310.127C1348.47 312.419 1350.33 314.277 1352.62 314.277Z" fill="#8A76E8" fill-opacity="0.36"/>
<path d="M1352.62 306.209C1354.78 306.209 1356.54 307.965 1356.54 310.127C1356.54 312.288 1354.78 314.044 1352.62 314.044C1350.46 314.044 1348.7 312.288 1348.7 310.127C1348.7 307.965 1350.46 306.209 1352.62 306.209ZM1352.62 305.743C1350.2 305.743 1348.23 307.704 1348.23 310.127C1348.23 312.549 1350.2 314.51 1352.62 314.51C1355.04 314.51 1357 312.549 1357 310.127C1357 307.704 1355.04 305.743 1352.62 305.743Z" fill="#271A38"/>
<path d="M1362.48 415.92C1360.9 415.92 1359.61 414.634 1359.61 413.055C1359.61 411.476 1360.9 410.19 1362.48 410.19C1364.06 410.19 1365.34 411.476 1365.34 413.055C1365.34 414.634 1364.06 415.92 1362.48 415.92Z" fill="#8A76E8" fill-opacity="0.36"/>
<path d="M1362.48 410.428C1363.93 410.428 1365.11 411.606 1365.11 413.06C1365.11 414.513 1363.93 415.692 1362.48 415.692C1361.02 415.692 1359.84 414.513 1359.84 413.06C1359.84 411.606 1361.02 410.428 1362.48 410.428ZM1362.48 409.962C1360.77 409.962 1359.38 411.35 1359.38 413.06C1359.38 414.769 1360.77 416.158 1362.48 416.158C1364.19 416.158 1365.57 414.769 1365.57 413.06C1365.57 411.35 1364.19 409.962 1362.48 409.962Z" fill="#271A38"/>
<path d="M1233.57 520.623C1235.05 520.623 1236.25 519.424 1236.25 517.945C1236.25 516.465 1235.05 515.266 1233.57 515.266C1232.09 515.266 1230.89 516.465 1230.89 517.945C1230.89 519.424 1232.09 520.623 1233.57 520.623Z" fill="#8A76E8" fill-opacity="0.36"/>
<path d="M1233.57 515.499C1234.92 515.499 1236.02 516.594 1236.02 517.945C1236.02 519.295 1234.92 520.39 1233.57 520.39C1232.22 520.39 1231.13 519.295 1231.13 517.945C1231.13 516.594 1232.22 515.499 1233.57 515.499ZM1233.57 515.033C1231.96 515.033 1230.66 516.337 1230.66 517.945C1230.66 519.552 1231.96 520.856 1233.57 520.856C1235.18 520.856 1236.49 519.552 1236.49 517.945C1236.49 516.337 1235.18 515.033 1233.57 515.033Z" fill="#271A38"/>
<path d="M991.247 521.597C992.825 521.597 994.104 520.318 994.104 518.741C994.104 517.164 992.825 515.886 991.247 515.886C989.67 515.886 988.391 517.164 988.391 518.741C988.391 520.318 989.67 521.597 991.247 521.597Z" fill="#8A76E8" fill-opacity="0.36"/>
<path d="M991.248 516.118C992.693 516.118 993.871 517.297 993.871 518.741C993.871 520.185 992.693 521.364 991.248 521.364C989.803 521.364 988.624 520.185 988.624 518.741C988.624 517.297 989.803 516.118 991.248 516.118ZM991.248 515.653C989.542 515.653 988.158 517.036 988.158 518.741C988.158 520.446 989.542 521.83 991.248 521.83C992.953 521.83 994.337 520.446 994.337 518.741C994.337 517.036 992.953 515.653 991.248 515.653Z" fill="#271A38"/>
<path d="M926.836 563.905C925.153 563.905 923.783 562.535 923.783 560.853C923.783 559.172 925.153 557.802 926.836 557.802C928.518 557.802 929.888 559.172 929.888 560.853C929.888 562.535 928.518 563.905 926.836 563.905Z" fill="#8A76E8" fill-opacity="0.36"/>
<path d="M926.836 558.035C928.393 558.035 929.656 559.302 929.656 560.854C929.656 562.405 928.388 563.672 926.836 563.672C925.284 563.672 924.017 562.405 924.017 560.854C924.017 559.302 925.284 558.035 926.836 558.035ZM926.836 557.569C925.019 557.569 923.551 559.041 923.551 560.854C923.551 562.666 925.023 564.138 926.836 564.138C928.649 564.138 930.122 562.666 930.122 560.854C930.122 559.041 928.649 557.569 926.836 557.569Z" fill="#271A38"/>
<path d="M880.183 610.624C878.878 610.624 877.82 609.567 877.82 608.263C877.82 606.958 878.878 605.901 880.183 605.901C881.488 605.901 882.546 606.958 882.546 608.263C882.546 609.567 881.488 610.624 880.183 610.624Z" fill="#8A76E8" fill-opacity="0.36"/>
<path d="M880.184 606.134C881.358 606.134 882.313 607.089 882.313 608.263C882.313 609.436 881.358 610.391 880.184 610.391C879.009 610.391 878.054 609.436 878.054 608.263C878.054 607.089 879.009 606.134 880.184 606.134ZM880.184 605.668C878.748 605.668 877.588 606.828 877.588 608.263C877.588 609.697 878.748 610.857 880.184 610.857C881.619 610.857 882.779 609.697 882.779 608.263C882.779 606.828 881.619 605.668 880.184 605.668Z" fill="#271A38"/>
<path d="M1106.76 663.605C1108.81 663.605 1110.47 661.94 1110.47 659.887C1110.47 657.834 1108.81 656.17 1106.76 656.17C1104.7 656.17 1103.04 657.834 1103.04 659.887C1103.04 661.94 1104.7 663.605 1106.76 663.605Z" fill="#8A76E8" fill-opacity="0.36"/>
<path d="M1106.76 656.403C1108.68 656.403 1110.24 657.963 1110.24 659.887C1110.24 661.811 1108.68 663.372 1106.76 663.372C1104.83 663.372 1103.27 661.811 1103.27 659.887C1103.27 657.963 1104.83 656.403 1106.76 656.403ZM1106.76 655.937C1104.58 655.937 1102.8 657.703 1102.8 659.887C1102.8 662.072 1104.57 663.838 1106.76 663.838C1108.94 663.838 1110.71 662.072 1110.71 659.887C1110.71 657.703 1108.94 655.937 1106.76 655.937Z" fill="#271A38"/>
<path d="M1253.64 684.861C1251.66 684.861 1250.04 683.25 1250.04 681.265C1250.04 679.281 1251.66 677.669 1253.64 677.669C1255.63 677.669 1257.24 679.281 1257.24 681.265C1257.24 683.25 1255.63 684.861 1253.64 684.861Z" fill="#8A76E8" fill-opacity="0.36"/>
<path d="M1253.64 677.902C1255.5 677.902 1257.01 679.411 1257.01 681.265C1257.01 683.119 1255.5 684.628 1253.64 684.628C1251.79 684.628 1250.28 683.119 1250.28 681.265C1250.28 679.411 1251.79 677.902 1253.64 677.902ZM1253.64 677.436C1251.53 677.436 1249.81 679.15 1249.81 681.265C1249.81 683.38 1251.53 685.094 1253.64 685.094C1255.76 685.094 1257.47 683.38 1257.47 681.265C1257.47 679.15 1255.76 677.436 1253.64 677.436Z" fill="#271A38"/>
<path d="M1364.3 738.923C1365.69 738.923 1366.82 737.796 1366.82 736.407C1366.82 735.018 1365.69 733.891 1364.3 733.891C1362.91 733.891 1361.79 735.018 1361.79 736.407C1361.79 737.796 1362.91 738.923 1364.3 738.923Z" fill="#8A76E8" fill-opacity="0.36"/>
<path d="M1364.3 734.124C1365.56 734.124 1366.59 735.149 1366.59 736.407C1366.59 737.665 1365.56 738.69 1364.3 738.69C1363.04 738.69 1362.02 737.665 1362.02 736.407C1362.02 735.149 1363.04 734.124 1364.3 734.124ZM1364.3 733.659C1362.78 733.659 1361.55 734.888 1361.55 736.407C1361.55 737.926 1362.78 739.156 1364.3 739.156C1365.82 739.156 1367.05 737.926 1367.05 736.407C1367.05 734.888 1365.82 733.659 1364.3 733.659Z" fill="#271A38"/>
<path d="M1397.82 697.532C1396.19 697.532 1394.87 696.209 1394.87 694.583C1394.87 692.958 1396.19 691.635 1397.82 691.635C1399.44 691.635 1400.77 692.958 1400.77 694.583C1400.77 696.209 1399.44 697.532 1397.82 697.532Z" fill="#8A76E8" fill-opacity="0.36"/>
<path d="M1397.82 691.868C1399.31 691.868 1400.53 693.083 1400.53 694.583C1400.53 696.084 1399.32 697.299 1397.82 697.299C1396.32 697.299 1395.1 696.079 1395.1 694.583C1395.1 693.088 1396.32 691.868 1397.82 691.868ZM1397.82 691.402C1396.06 691.402 1394.63 692.827 1394.63 694.583C1394.63 696.34 1396.06 697.765 1397.82 697.765C1399.57 697.765 1401 696.34 1401 694.583C1401 692.827 1399.57 691.402 1397.82 691.402Z" fill="#271A38"/>
<path d="M1360.48 507.416C1359.01 507.416 1357.81 506.219 1357.81 504.747C1357.81 503.275 1359.01 502.078 1360.48 502.078C1361.96 502.078 1363.15 503.275 1363.15 504.747C1363.15 506.219 1361.96 507.416 1360.48 507.416Z" fill="#8A76E8" fill-opacity="0.36"/>
<path d="M1360.49 502.306C1361.83 502.306 1362.92 503.401 1362.92 504.743C1362.92 506.084 1361.83 507.179 1360.49 507.179C1359.14 507.179 1358.05 506.084 1358.05 504.743C1358.05 503.401 1359.14 502.306 1360.49 502.306ZM1360.49 501.84C1358.88 501.84 1357.58 503.14 1357.58 504.743C1357.58 506.345 1358.88 507.645 1360.49 507.645C1362.09 507.645 1363.39 506.345 1363.39 504.743C1363.39 503.14 1362.09 501.84 1360.49 501.84Z" fill="#271A38"/>
<path d="M1316.23 449.698C1317.33 449.698 1318.22 448.81 1318.22 447.714C1318.22 446.618 1317.33 445.729 1316.23 445.729C1315.14 445.729 1314.25 446.618 1314.25 447.714C1314.25 448.81 1315.14 449.698 1316.23 449.698Z" fill="#8A76E8" fill-opacity="0.36"/>
<path d="M1316.23 445.962C1317.2 445.962 1317.99 446.75 1317.99 447.714C1317.99 448.678 1317.2 449.465 1316.23 449.465C1315.27 449.465 1314.48 448.678 1314.48 447.714C1314.48 446.75 1315.27 445.962 1316.23 445.962ZM1316.23 445.496C1315.01 445.496 1314.02 446.489 1314.02 447.714C1314.02 448.939 1315.01 449.931 1316.23 449.931C1317.46 449.931 1318.45 448.939 1318.45 447.714C1318.45 446.489 1317.46 445.496 1316.23 445.496Z" fill="#271A38"/>
<path d="M1006.19 205.773C1004.27 205.773 1002.71 204.208 1002.71 202.288C1002.71 200.369 1004.27 198.804 1006.19 198.804C1008.11 198.804 1009.68 200.369 1009.68 202.288C1009.68 204.208 1008.11 205.773 1006.19 205.773Z" fill="#8A76E8" fill-opacity="0.36"/>
<path d="M1006.19 199.037C1007.99 199.037 1009.45 200.495 1009.45 202.288C1009.45 204.082 1007.99 205.54 1006.19 205.54C1004.4 205.54 1002.94 204.082 1002.94 202.288C1002.94 200.495 1004.4 199.037 1006.19 199.037ZM1006.19 198.571C1004.14 198.571 1002.47 200.234 1002.47 202.288C1002.47 204.343 1004.14 206.006 1006.19 206.006C1008.25 206.006 1009.91 204.343 1009.91 202.288C1009.91 200.234 1008.25 198.571 1006.19 198.571Z" fill="#271A38"/>
<path d="M925.614 153.272C924.206 153.272 923.064 152.131 923.064 150.724C923.064 149.317 924.206 148.176 925.614 148.176C927.021 148.176 928.163 149.317 928.163 150.724C928.163 152.131 927.021 153.272 925.614 153.272Z" fill="#8A76E8" fill-opacity="0.36"/>
<path d="M925.614 148.409C926.891 148.409 927.93 149.448 927.93 150.724C927.93 152 926.891 153.039 925.614 153.039C924.337 153.039 923.298 152 923.298 150.724C923.298 149.448 924.337 148.409 925.614 148.409ZM925.614 147.943C924.076 147.943 922.832 149.187 922.832 150.724C922.832 152.261 924.076 153.505 925.614 153.505C927.152 153.505 928.396 152.261 928.396 150.724C928.396 149.187 927.152 147.943 925.614 147.943Z" fill="#271A38"/>
<path d="M826.396 107.419C824.901 107.419 823.68 106.199 823.68 104.703C823.68 103.208 824.901 101.987 826.396 101.987C827.892 101.987 829.113 103.208 829.113 104.703C829.113 106.199 827.892 107.419 826.396 107.419Z" fill="#8A76E8" fill-opacity="0.36"/>
<path d="M826.397 102.22C827.767 102.22 828.881 103.334 828.881 104.703C828.881 106.073 827.767 107.186 826.397 107.186C825.027 107.186 823.913 106.073 823.913 104.703C823.913 103.334 825.027 102.22 826.397 102.22ZM826.397 101.754C824.766 101.754 823.447 103.073 823.447 104.703C823.447 106.334 824.766 107.652 826.397 107.652C828.028 107.652 829.347 106.334 829.347 104.703C829.347 103.073 828.028 101.754 826.397 101.754Z" fill="#271A38"/>
<path d="M791.729 94.7761C793.526 94.7761 794.982 93.3203 794.982 91.5245C794.982 89.7287 793.526 88.2729 791.729 88.2729C789.933 88.2729 788.477 89.7287 788.477 91.5245C788.477 93.3203 789.933 94.7761 791.729 94.7761Z" fill="#8A76E8" fill-opacity="0.36"/>
<path d="M791.73 88.5058C793.394 88.5058 794.75 89.8614 794.75 91.5245C794.75 93.1875 793.394 94.5431 791.73 94.5431C790.066 94.5431 788.71 93.1875 788.71 91.5245C788.71 89.8614 790.066 88.5058 791.73 88.5058ZM791.73 88.0399C789.805 88.0399 788.244 89.6005 788.244 91.5245C788.244 93.4484 789.805 95.009 791.73 95.009C793.654 95.009 795.216 93.4484 795.216 91.5245C795.216 89.6005 793.654 88.0399 791.73 88.0399Z" fill="#271A38"/>
<path d="M718.338 83.1905C716.287 83.1905 714.619 81.5228 714.619 79.4731C714.619 77.4234 716.287 75.7556 718.338 75.7556C720.388 75.7556 722.057 77.4234 722.057 79.4731C722.057 81.5228 720.388 83.1905 718.338 83.1905Z" fill="#8A76E8" fill-opacity="0.36"/>
<path d="M718.338 75.9885C720.258 75.9885 721.824 77.5491 721.824 79.4731C721.824 81.397 720.263 82.9576 718.338 82.9576C716.414 82.9576 714.853 81.397 714.853 79.4731C714.853 77.5491 716.414 75.9885 718.338 75.9885ZM718.338 75.5227C716.158 75.5227 714.387 77.2929 714.387 79.4731C714.387 81.6532 716.153 83.4234 718.338 83.4234C720.524 83.4234 722.29 81.6532 722.29 79.4731C722.29 77.2929 720.519 75.5227 718.338 75.5227Z" fill="#271A38"/>
<path d="M331.188 440.013C330.601 440.013 330.121 439.534 330.121 438.947C330.121 438.36 330.601 437.88 331.188 437.88C331.775 437.88 332.255 438.36 332.255 438.947C332.255 439.534 331.775 440.013 331.188 440.013Z" fill="#8A76E8" fill-opacity="0.36"/>
<path d="M331.189 438.113C331.65 438.113 332.023 438.485 332.023 438.947C332.023 439.408 331.65 439.78 331.189 439.78C330.727 439.78 330.355 439.408 330.355 438.947C330.355 438.485 330.727 438.113 331.189 438.113ZM331.189 437.647C330.471 437.647 329.889 438.229 329.889 438.947C329.889 439.664 330.471 440.246 331.189 440.246C331.906 440.246 332.489 439.664 332.489 438.947C332.489 438.229 331.906 437.647 331.189 437.647Z" fill="#271A38"/>
<path d="M327.505 408.816C326.778 408.816 326.182 408.224 326.182 407.493C326.182 406.761 326.773 406.17 327.505 406.17C328.237 406.17 328.829 406.761 328.829 407.493C328.829 408.224 328.237 408.816 327.505 408.816Z" fill="#8A76E8" fill-opacity="0.36"/>
<path d="M327.506 406.403C328.107 406.403 328.596 406.892 328.596 407.493C328.596 408.094 328.107 408.583 327.506 408.583C326.905 408.583 326.415 408.094 326.415 407.493C326.415 406.892 326.905 406.403 327.506 406.403ZM327.506 405.937C326.648 405.937 325.949 406.631 325.949 407.493C325.949 408.355 326.644 409.049 327.506 409.049C328.368 409.049 329.062 408.355 329.062 407.493C329.062 406.631 328.368 405.937 327.506 405.937Z" fill="#271A38"/>
<path d="M311.079 481.525C312.088 481.525 312.905 480.707 312.905 479.699C312.905 478.69 312.088 477.873 311.079 477.873C310.07 477.873 309.252 478.69 309.252 479.699C309.252 480.707 310.07 481.525 311.079 481.525Z" fill="#8A76E8" fill-opacity="0.36"/>
<path d="M311.079 478.105C311.955 478.105 312.673 478.818 312.673 479.699C312.673 480.579 311.96 481.292 311.079 481.292C310.199 481.292 309.486 480.579 309.486 479.699C309.486 478.818 310.199 478.105 311.079 478.105ZM311.079 477.64C309.942 477.64 309.02 478.562 309.02 479.699C309.02 480.835 309.942 481.758 311.079 481.758C312.216 481.758 313.139 480.835 313.139 479.699C313.139 478.562 312.216 477.64 311.079 477.64Z" fill="#271A38"/>
<path d="M321.57 501.267C322.728 501.267 323.667 500.329 323.667 499.171C323.667 498.013 322.728 497.075 321.57 497.075C320.412 497.075 319.473 498.013 319.473 499.171C319.473 500.329 320.412 501.267 321.57 501.267Z" fill="#8A76E8" fill-opacity="0.36"/>
<path d="M321.57 497.308C322.6 497.308 323.434 498.146 323.434 499.171C323.434 500.196 322.6 501.034 321.57 501.034C320.54 501.034 319.706 500.196 319.706 499.171C319.706 498.146 320.54 497.308 321.57 497.308ZM321.57 496.842C320.284 496.842 319.24 497.885 319.24 499.171C319.24 500.457 320.284 501.5 321.57 501.5C322.856 501.5 323.9 500.457 323.9 499.171C323.9 497.885 322.856 496.842 321.57 496.842Z" fill="#271A38"/>
<path d="M351.7 513.067C350.125 513.067 348.844 511.786 348.844 510.212C348.844 508.637 350.125 507.356 351.7 507.356C353.275 507.356 354.557 508.637 354.557 510.212C354.557 511.786 353.275 513.067 351.7 513.067Z" fill="#8A76E8" fill-opacity="0.36"/>
<path d="M351.701 507.589C353.146 507.589 354.325 508.767 354.325 510.211C354.325 511.656 353.146 512.834 351.701 512.834C350.256 512.834 349.077 511.656 349.077 510.211C349.077 508.767 350.256 507.589 351.701 507.589ZM351.701 507.123C349.995 507.123 348.611 508.506 348.611 510.211C348.611 511.916 349.995 513.3 351.701 513.3C353.407 513.3 354.791 511.916 354.791 510.211C354.791 508.506 353.407 507.123 351.701 507.123Z" fill="#271A38"/>
<path d="M478.247 452.144C476.947 452.144 475.889 451.087 475.889 449.787C475.889 448.487 476.947 447.43 478.247 447.43C479.547 447.43 480.605 448.487 480.605 449.787C480.605 451.087 479.547 452.144 478.247 452.144Z" fill="#8A76E8" fill-opacity="0.36"/>
<path d="M478.247 447.658C479.422 447.658 480.372 448.613 480.372 449.782C480.372 450.952 479.417 451.906 478.247 451.906C477.078 451.906 476.122 450.952 476.122 449.782C476.122 448.613 477.078 447.658 478.247 447.658ZM478.247 447.192C476.817 447.192 475.656 448.352 475.656 449.782C475.656 451.212 476.817 452.372 478.247 452.372C479.678 452.372 480.838 451.212 480.838 449.782C480.838 448.352 479.678 447.192 478.247 447.192Z" fill="#271A38"/>
<path d="M531.222 235.978C530.36 235.978 529.656 235.275 529.656 234.413C529.656 233.551 530.36 232.848 531.222 232.848C532.084 232.848 532.788 233.551 532.788 234.413C532.788 235.275 532.084 235.978 531.222 235.978Z" fill="#8A76E8" fill-opacity="0.36"/>
<path d="M531.223 233.076C531.959 233.076 532.555 233.672 532.555 234.408C532.555 235.144 531.959 235.741 531.223 235.741C530.486 235.741 529.89 235.144 529.89 234.408C529.89 233.672 530.486 233.076 531.223 233.076ZM531.223 232.61C530.23 232.61 529.424 233.416 529.424 234.408C529.424 235.401 530.23 236.206 531.223 236.206C532.215 236.206 533.021 235.401 533.021 234.408C533.021 233.416 532.215 232.61 531.223 232.61Z" fill="#271A38"/>
<path d="M318.284 194.131C316.774 194.131 315.549 192.906 315.549 191.397C315.549 189.888 316.774 188.662 318.284 188.662C319.794 188.662 321.02 189.888 321.02 191.397C321.02 192.906 319.794 194.131 318.284 194.131Z" fill="#8A76E8" fill-opacity="0.36"/>
<path d="M318.285 188.895C319.664 188.895 320.787 190.018 320.787 191.397C320.787 192.776 319.664 193.898 318.285 193.898C316.905 193.898 315.782 192.776 315.782 191.397C315.782 190.018 316.905 188.895 318.285 188.895ZM318.285 188.429C316.645 188.429 315.316 189.757 315.316 191.397C315.316 193.037 316.645 194.364 318.285 194.364C319.925 194.364 321.253 193.037 321.253 191.397C321.253 189.757 319.925 188.429 318.285 188.429Z" fill="#271A38"/>
<path d="M163.201 186.487C164.622 186.487 165.774 185.336 165.774 183.915C165.774 182.495 164.622 181.344 163.201 181.344C161.781 181.344 160.629 182.495 160.629 183.915C160.629 185.336 161.781 186.487 163.201 186.487Z" fill="#8A76E8" fill-opacity="0.36"/>
<path d="M163.202 181.577C164.493 181.577 165.541 182.625 165.541 183.915C165.541 185.206 164.493 186.254 163.202 186.254C161.911 186.254 160.862 185.206 160.862 183.915C160.862 182.625 161.911 181.577 163.202 181.577ZM163.202 181.111C161.655 181.111 160.396 182.364 160.396 183.915C160.396 185.467 161.65 186.72 163.202 186.72C164.754 186.72 166.007 185.467 166.007 183.915C166.007 182.364 164.754 181.111 163.202 181.111Z" fill="#271A38"/>
<path d="M181.146 133.376C179.603 133.376 178.35 132.123 178.35 130.581C178.35 129.039 179.603 127.786 181.146 127.786C182.688 127.786 183.942 129.039 183.942 130.581C183.942 132.123 182.688 133.376 181.146 133.376Z" fill="#8A76E8" fill-opacity="0.36"/>
<path d="M181.146 128.019C182.558 128.019 183.709 129.169 183.709 130.581C183.709 131.992 182.558 133.143 181.146 133.143C179.734 133.143 178.583 131.992 178.583 130.581C178.583 129.169 179.734 128.019 181.146 128.019ZM181.146 127.553C179.473 127.553 178.117 128.908 178.117 130.581C178.117 132.253 179.473 133.609 181.146 133.609C182.819 133.609 184.175 132.253 184.175 130.581C184.175 128.908 182.819 127.553 181.146 127.553Z" fill="#271A38"/>
<path d="M128.547 175.055C127.247 175.055 126.189 173.998 126.189 172.698C126.189 171.398 127.247 170.341 128.547 170.341C129.848 170.341 130.905 171.398 130.905 172.698C130.905 173.998 129.848 175.055 128.547 175.055Z" fill="#8A76E8" fill-opacity="0.36"/>
<path d="M128.548 170.574C129.722 170.574 130.673 171.529 130.673 172.698C130.673 173.867 129.718 174.822 128.548 174.822C127.378 174.822 126.423 173.867 126.423 172.698C126.423 171.529 127.378 170.574 128.548 170.574ZM128.548 170.108C127.117 170.108 125.957 171.268 125.957 172.698C125.957 174.128 127.117 175.288 128.548 175.288C129.979 175.288 131.139 174.128 131.139 172.698C131.139 171.268 129.979 170.108 128.548 170.108Z" fill="#271A38"/>
<path d="M108.719 228.52C110.101 228.52 111.222 227.4 111.222 226.018C111.222 224.637 110.101 223.517 108.719 223.517C107.337 223.517 106.217 224.637 106.217 226.018C106.217 227.4 107.337 228.52 108.719 228.52Z" fill="#8A76E8" fill-opacity="0.36"/>
<path d="M108.72 223.745C109.973 223.745 110.989 224.765 110.989 226.014C110.989 227.262 109.969 228.282 108.72 228.282C107.471 228.282 106.45 227.262 106.45 226.014C106.45 224.765 107.471 223.745 108.72 223.745ZM108.72 223.279C107.21 223.279 105.984 224.504 105.984 226.014C105.984 227.523 107.21 228.748 108.72 228.748C110.23 228.748 111.455 227.523 111.455 226.014C111.455 224.504 110.23 223.279 108.72 223.279Z" fill="#271A38"/>
<path d="M148.745 402.662C146.993 402.662 145.562 401.237 145.562 399.48C145.562 397.724 146.988 396.299 148.745 396.299C150.502 396.299 151.928 397.724 151.928 399.48C151.928 401.237 150.502 402.662 148.745 402.662Z" fill="#8A76E8" fill-opacity="0.36"/>
<path d="M148.746 396.536C150.372 396.536 151.696 397.859 151.696 399.485C151.696 401.111 150.372 402.434 148.746 402.434C147.12 402.434 145.796 401.111 145.796 399.485C145.796 397.859 147.12 396.536 148.746 396.536ZM148.746 396.07C146.859 396.07 145.33 397.598 145.33 399.485C145.33 401.372 146.859 402.9 148.746 402.9C150.633 402.9 152.162 401.372 152.162 399.485C152.162 397.598 150.633 396.07 148.746 396.07Z" fill="#271A38"/>
<path d="M113.072 555.608C111.022 555.608 109.354 553.94 109.354 551.891C109.354 549.841 111.022 548.173 113.072 548.173C115.123 548.173 116.791 549.841 116.791 551.891C116.791 553.94 115.123 555.608 113.072 555.608Z" fill="#8A76E8" fill-opacity="0.36"/>
<path d="M113.073 548.406C114.993 548.406 116.559 549.967 116.559 551.891C116.559 553.815 114.997 555.375 113.073 555.375C111.148 555.375 109.587 553.815 109.587 551.891C109.587 549.967 111.148 548.406 113.073 548.406ZM113.073 547.94C110.892 547.94 109.121 549.706 109.121 551.891C109.121 554.075 110.887 555.841 113.073 555.841C115.258 555.841 117.025 554.075 117.025 551.891C117.025 549.706 115.258 547.94 113.073 547.94Z" fill="#271A38"/>
<path d="M1352.8 759.024C1353.77 759.024 1354.55 758.242 1354.55 757.277C1354.55 756.312 1353.77 755.53 1352.8 755.53C1351.84 755.53 1351.06 756.312 1351.06 757.277C1351.06 758.242 1351.84 759.024 1352.8 759.024Z" fill="#8A76E8" fill-opacity="0.36"/>
<path d="M1352.8 755.763C1353.64 755.763 1354.32 756.443 1354.32 757.277C1354.32 758.111 1353.64 758.791 1352.8 758.791C1351.97 758.791 1351.29 758.111 1351.29 757.277C1351.29 756.443 1351.97 755.763 1352.8 755.763ZM1352.8 755.297C1351.71 755.297 1350.82 756.182 1350.82 757.277C1350.82 758.372 1351.71 759.257 1352.8 759.257C1353.9 759.257 1354.79 758.372 1354.79 757.277C1354.79 756.182 1353.9 755.297 1352.8 755.297Z" fill="#271A38"/>
<path d="M1342.8 747.257C1341.88 747.257 1341.13 746.507 1341.13 745.579C1341.13 744.652 1341.88 743.902 1342.8 743.902C1343.73 743.902 1344.48 744.652 1344.48 745.579C1344.48 746.507 1343.73 747.257 1342.8 747.257Z" fill="#8A76E8" fill-opacity="0.36"/>
<path d="M1342.81 744.14C1343.6 744.14 1344.25 744.788 1344.25 745.584C1344.25 746.381 1343.6 747.028 1342.81 747.028C1342.01 747.028 1341.36 746.381 1341.36 745.584C1341.36 744.788 1342.01 744.14 1342.81 744.14ZM1342.81 743.674C1341.75 743.674 1340.89 744.527 1340.89 745.584C1340.89 746.642 1341.75 747.494 1342.81 747.494C1343.86 747.494 1344.72 746.642 1344.72 745.584C1344.72 744.527 1343.86 743.674 1342.81 743.674Z" fill="#271A38"/>
<path d="M1224.33 963.017C1225.64 963.017 1226.69 961.96 1226.69 960.655C1226.69 959.351 1225.64 958.293 1224.33 958.293C1223.03 958.293 1221.97 959.351 1221.97 960.655C1221.97 961.96 1223.03 963.017 1224.33 963.017Z" fill="#8A76E8" fill-opacity="0.36"/>
<path d="M1224.33 958.526C1225.51 958.526 1226.46 959.481 1226.46 960.655C1226.46 961.829 1225.51 962.784 1224.33 962.784C1223.16 962.784 1222.2 961.829 1222.2 960.655C1222.2 959.481 1223.16 958.526 1224.33 958.526ZM1224.33 958.061C1222.9 958.061 1221.74 959.225 1221.74 960.655C1221.74 962.085 1222.9 963.25 1224.33 963.25C1225.76 963.25 1226.93 962.085 1226.93 960.655C1226.93 959.225 1225.76 958.061 1224.33 958.061Z" fill="#271A38"/>
<path d="M1219.07 830.154C1217.29 830.154 1215.85 828.709 1215.85 826.935C1215.85 825.16 1217.29 823.716 1219.07 823.716C1220.85 823.716 1222.29 825.16 1222.29 826.935C1222.29 828.709 1220.85 830.154 1219.07 830.154Z" fill="#8A76E8" fill-opacity="0.36"/>
<path d="M1219.07 823.953C1220.72 823.953 1222.06 825.29 1222.06 826.939C1222.06 828.588 1220.72 829.925 1219.07 829.925C1217.42 829.925 1216.08 828.588 1216.08 826.939C1216.08 825.29 1217.42 823.953 1219.07 823.953ZM1219.07 823.487C1217.16 823.487 1215.62 825.034 1215.62 826.939C1215.62 828.845 1217.16 830.391 1219.07 830.391C1220.98 830.391 1222.52 828.845 1222.52 826.939C1222.52 825.034 1220.98 823.487 1219.07 823.487Z" fill="#271A38"/>
<path d="M978.273 587.095C976.548 587.095 975.15 585.692 975.15 583.973C975.15 582.254 976.553 580.852 978.273 580.852C979.992 580.852 981.395 582.254 981.395 583.973C981.395 585.692 979.992 587.095 978.273 587.095Z" fill="#8A76E8" fill-opacity="0.36"/>
<path d="M978.273 581.085C979.867 581.085 981.162 582.38 981.162 583.973C981.162 585.567 979.867 586.862 978.273 586.862C976.679 586.862 975.384 585.567 975.384 583.973C975.384 582.38 976.679 581.085 978.273 581.085ZM978.273 580.619C976.418 580.619 974.918 582.119 974.918 583.973C974.918 585.827 976.418 587.327 978.273 587.327C980.128 587.327 981.628 585.827 981.628 583.973C981.628 582.119 980.128 580.619 978.273 580.619Z" fill="#271A38"/>
<path d="M912.939 588.441C913.93 588.441 914.733 587.638 914.733 586.647C914.733 585.657 913.93 584.854 912.939 584.854C911.948 584.854 911.145 585.657 911.145 586.647C911.145 587.638 911.948 588.441 912.939 588.441Z" fill="#8A76E8" fill-opacity="0.36"/>
<path d="M912.939 585.087C913.797 585.087 914.5 585.785 914.5 586.647C914.5 587.509 913.801 588.208 912.939 588.208C912.077 588.208 911.378 587.509 911.378 586.647C911.378 585.785 912.077 585.087 912.939 585.087ZM912.939 584.621C911.821 584.621 910.912 585.529 910.912 586.647C910.912 587.765 911.821 588.674 912.939 588.674C914.058 588.674 914.966 587.765 914.966 586.647C914.966 585.529 914.058 584.621 912.939 584.621Z" fill="#271A38"/>
<path d="M748.937 668.291C747.432 668.291 746.211 667.066 746.211 665.566C746.211 664.066 747.437 662.841 748.937 662.841C750.438 662.841 751.663 664.061 751.663 665.566C751.663 667.071 750.438 668.291 748.937 668.291Z" fill="#8A76E8" fill-opacity="0.36"/>
<path d="M748.938 663.069C750.312 663.069 751.431 664.187 751.431 665.561C751.431 666.936 750.312 668.054 748.938 668.054C747.563 668.054 746.445 666.936 746.445 665.561C746.445 664.187 747.563 663.069 748.938 663.069ZM748.938 662.603C747.302 662.603 745.979 663.926 745.979 665.561C745.979 667.196 747.302 668.519 748.938 668.519C750.573 668.519 751.897 667.196 751.897 665.561C751.897 663.926 750.573 662.603 748.938 662.603Z" fill="#271A38"/>
<path d="M726.069 648.409C724.023 648.409 722.359 646.746 722.359 644.701C722.359 642.656 724.023 640.993 726.069 640.993C728.115 640.993 729.778 642.656 729.778 644.701C729.778 646.746 728.115 648.409 726.069 648.409Z" fill="#8A76E8" fill-opacity="0.36"/>
<path d="M726.069 641.23C727.985 641.23 729.546 642.791 729.546 644.705C729.546 646.62 727.989 648.181 726.069 648.181C724.149 648.181 722.593 646.62 722.593 644.705C722.593 642.791 724.154 641.23 726.069 641.23ZM726.069 640.764C723.893 640.764 722.127 642.53 722.127 644.705C722.127 646.881 723.893 648.647 726.069 648.647C728.246 648.647 730.012 646.881 730.012 644.705C730.012 642.53 728.246 640.764 726.069 640.764Z" fill="#271A38"/>
<path d="M604.665 698.366C603.109 698.366 601.846 697.099 601.846 695.548C601.846 693.996 603.113 692.729 604.665 692.729C606.217 692.729 607.484 693.996 607.484 695.548C607.484 697.099 606.217 698.366 604.665 698.366Z" fill="#8A76E8" fill-opacity="0.36"/>
<path d="M604.666 692.958C606.092 692.958 607.252 694.118 607.252 695.543C607.252 696.969 606.092 698.129 604.666 698.129C603.24 698.129 602.079 696.969 602.079 695.543C602.079 694.118 603.24 692.958 604.666 692.958ZM604.666 692.492C602.979 692.492 601.613 693.857 601.613 695.543C601.613 697.229 602.979 698.594 604.666 698.594C606.353 698.594 607.718 697.229 607.718 695.543C607.718 693.857 606.353 692.492 604.666 692.492Z" fill="#271A38"/>
<path d="M541.627 710.786C539.577 710.786 537.908 709.118 537.908 707.068C537.908 705.018 539.577 703.351 541.627 703.351C543.677 703.351 545.346 705.018 545.346 707.068C545.346 709.118 543.677 710.786 541.627 710.786Z" fill="#8A76E8" fill-opacity="0.36"/>
<path d="M541.628 703.588C543.547 703.588 545.113 705.149 545.113 707.073C545.113 708.997 543.552 710.557 541.628 710.557C539.703 710.557 538.142 708.997 538.142 707.073C538.142 705.149 539.703 703.588 541.628 703.588ZM541.628 703.122C539.447 703.122 537.676 704.893 537.676 707.073C537.676 709.253 539.447 711.023 541.628 711.023C543.808 711.023 545.579 709.253 545.579 707.073C545.579 704.893 543.813 703.122 541.628 703.122Z" fill="#271A38"/>
<path d="M496.154 743.124C498.079 743.124 499.64 741.564 499.64 739.64C499.64 737.716 498.079 736.155 496.154 736.155C494.229 736.155 492.668 737.716 492.668 739.64C492.668 741.564 494.229 743.124 496.154 743.124Z" fill="#8A76E8" fill-opacity="0.36"/>
<path d="M496.154 736.388C497.948 736.388 499.407 737.846 499.407 739.64C499.407 741.433 497.948 742.892 496.154 742.892C494.36 742.892 492.902 741.433 492.902 739.64C492.902 737.846 494.36 736.388 496.154 736.388ZM496.154 735.922C494.099 735.922 492.436 737.586 492.436 739.64C492.436 741.694 494.099 743.357 496.154 743.357C498.209 743.357 499.873 741.694 499.873 739.64C499.873 737.586 498.209 735.922 496.154 735.922Z" fill="#271A38"/>
<path d="M450.816 801.7C449.269 801.7 448.006 800.442 448.006 798.891C448.006 797.339 449.264 796.082 450.816 796.082C452.368 796.082 453.626 797.339 453.626 798.891C453.626 800.442 452.368 801.7 450.816 801.7Z" fill="#8A76E8" fill-opacity="0.36"/>
<path d="M450.816 796.315C452.238 796.315 453.394 797.47 453.394 798.891C453.394 800.311 452.238 801.467 450.816 801.467C449.395 801.467 448.239 800.311 448.239 798.891C448.239 797.47 449.395 796.315 450.816 796.315ZM450.816 795.849C449.134 795.849 447.773 797.209 447.773 798.891C447.773 800.572 449.134 801.933 450.816 801.933C452.499 801.933 453.86 800.572 453.86 798.891C453.86 797.209 452.499 795.849 450.816 795.849Z" fill="#271A38"/>
<path d="M428.44 838.944C427.023 838.944 425.867 837.789 425.867 836.373C425.867 834.956 427.023 833.801 428.44 833.801C429.856 833.801 431.012 834.956 431.012 836.373C431.012 837.789 429.856 838.944 428.44 838.944Z" fill="#8A76E8" fill-opacity="0.36"/>
<path d="M428.44 834.034C429.731 834.034 430.78 835.082 430.78 836.373C430.78 837.663 429.731 838.711 428.44 838.711C427.149 838.711 426.101 837.663 426.101 836.373C426.101 835.082 427.149 834.034 428.44 834.034ZM428.44 833.568C426.893 833.568 425.635 834.821 425.635 836.373C425.635 837.924 426.888 839.177 428.44 839.177C429.992 839.177 431.246 837.924 431.246 836.373C431.246 834.821 429.992 833.568 428.44 833.568Z" fill="#271A38"/>
</g>
<path d="M1511.85 887.453C1510.34 887.453 1509.11 886.151 1509.11 884.546C1509.11 882.941 1510.34 881.639 1511.85 881.639C1513.36 881.639 1514.58 882.941 1514.58 884.546C1514.58 886.151 1513.36 887.453 1511.85 887.453Z" fill="#8A76E8" fill-opacity="0.36"/>
<path d="M1511.85 881.882C1513.23 881.882 1514.35 883.075 1514.35 884.541C1514.35 886.007 1513.23 887.2 1511.85 887.2C1510.47 887.2 1509.34 886.007 1509.34 884.541C1509.34 883.075 1510.47 881.882 1511.85 881.882ZM1511.85 881.386C1510.21 881.386 1508.88 882.798 1508.88 884.541C1508.88 886.284 1510.21 887.696 1511.85 887.696C1513.49 887.696 1514.82 886.284 1514.82 884.541C1514.82 882.798 1513.49 881.386 1511.85 881.386Z" fill="#271A38"/>
<g clip-path="url(#clip1_85_474)">
<path d="M1018.34 204.722C1019.29 204.742 1020.49 205.561 1019.8 206.589C1018.63 207.68 1016.89 207.843 1015.41 208.277C1013.67 208.677 1011.94 209.141 1010.37 209.684C1007.6 210.904 1004.57 211.852 1002.18 213.753C1001.05 214.913 999.996 216.202 999.194 217.624C998.162 219.826 997.749 222.246 997.213 224.562C995.634 231.425 995.221 238.456 993.947 245.379C993.583 247.823 993.382 250.287 993.161 252.751C993.17 253.724 991.946 254.538 991.302 253.561C990.736 252.376 990.849 250.973 990.702 249.689C990.628 248.455 990.584 247.201 990.5 245.986C990.028 241.449 989.109 237.024 989.128 232.462C988.907 229.238 988.509 226.018 988.002 222.824C987.791 221.456 987.663 220.058 987.211 218.745C986.793 217.545 985.971 216.38 985.45 215.323C985.086 214.592 984.776 213.965 984.324 213.309C983.759 212.489 982.824 212.05 982.096 211.393C980.774 210.198 979.357 209.25 977.666 208.87C975.502 208.09 973.383 207.146 971.077 206.885C969.39 206.554 969.793 204.722 971.558 204.905C974.779 204.915 977.931 204.149 981.162 204.283C982.342 204.243 983.345 203.641 984.255 202.94C984.57 202.673 984.973 202.456 985.371 202.633C986.094 200.174 986.915 197.735 987.648 195.266C988.376 192.807 989.02 190.319 989.379 187.771C990.028 182.675 990.304 177.456 991.267 172.435C991.597 171.862 992.462 171.852 992.797 172.435C993.028 172.785 993.092 173.195 993.175 173.6C994.001 177.323 994.164 181.15 994.887 184.892C995.654 188.502 995.895 192.19 996.426 195.834C996.618 196.782 996.819 197.745 997.267 198.609C997.803 199.572 998.643 200.332 999.42 201.098C1000.59 202.13 1002.17 202.416 1003.64 202.772C1007.39 203.468 1011.16 203.7 1014.94 203.962C1016.1 204.105 1017.21 204.475 1018.34 204.722ZM1016.59 206.134C1013.91 205.369 1011.09 205.67 1008.39 205.241C1005.25 204.781 1001.87 204.678 999.052 203.043C994.513 199.933 994.592 195.958 994.065 191C993.505 186.783 992.58 182.621 992.177 178.385C991.518 183.021 991.439 187.751 990.259 192.304C989.576 195.074 988.582 197.75 987.786 200.486C987.392 201.829 986.989 203.182 986.409 204.46C986.183 205.043 985.317 205.137 984.983 204.604C982.475 206.801 979.038 205.764 976.038 206.361C977.745 207.137 979.505 207.364 981.064 208.351C982.224 209.102 983.218 210.055 984.324 210.869C984.865 211.225 985.381 211.694 985.74 212.232C986.714 213.709 987.338 215.165 988.224 216.647C989.591 219.165 989.581 221.91 990.077 224.641C990.422 227.134 990.736 229.751 990.894 232.245C991.022 234.615 991.036 236.753 991.341 239.039C991.444 239.765 991.562 240.491 991.685 241.216C991.892 242.476 992.089 243.735 992.202 245.004C993.485 237.997 993.864 231.104 995.472 224.211C996.18 221.273 996.583 218.148 998.339 215.624C999.42 214.133 1000.55 212.573 1002.11 211.561C1003.39 210.726 1004.79 210.178 1006.16 209.541C1009.45 207.867 1013.03 207.003 1016.59 206.134Z" fill="white"/>
<path d="M1008.4 205.24C1011.1 205.67 1013.91 205.369 1016.59 206.134C1013.03 207.003 1009.45 207.867 1006.16 209.541C1004.79 210.178 1003.39 210.726 1002.11 211.561C1000.55 212.573 999.421 214.133 998.339 215.624C996.584 218.148 996.181 221.273 995.473 224.211C993.865 231.104 993.486 237.997 992.203 245.004C992.089 243.735 991.893 242.475 991.686 241.216C991.563 240.491 991.445 239.765 991.342 239.039C991.037 236.753 991.022 234.615 990.894 232.245C990.737 229.751 990.422 227.134 990.078 224.641C989.582 221.91 989.591 219.165 988.224 216.646C987.339 215.165 986.715 213.709 985.741 212.232C985.382 211.694 984.866 211.225 984.325 210.869C983.218 210.055 982.225 209.102 981.065 208.351C979.506 207.364 977.745 207.137 976.039 206.361C979.039 205.764 982.476 206.801 984.984 204.603C985.318 205.137 986.184 205.043 986.41 204.46C986.99 203.181 987.393 201.829 987.787 200.485C988.583 197.75 989.577 195.074 990.26 192.304C991.44 187.751 991.519 183.021 992.178 178.384C992.581 182.621 993.506 186.783 994.066 191C994.592 195.958 994.514 199.932 999.052 203.043C1001.87 204.678 1005.25 204.781 1008.4 205.24Z" fill="white"/>
</g>
<g clip-path="url(#clip2_85_474)">
<path d="M1217.55 438.996C1218.13 439.232 1218.12 439.937 1217.69 440.33C1214.48 443.066 1209.94 442.879 1206.27 444.674C1204.98 445.446 1203.47 446.169 1202.82 447.623C1201.69 450.326 1201.27 453.249 1200.67 456.101C1200.29 458.181 1200.13 460.321 1200.02 462.42C1199.95 463.462 1199.72 464.481 1199.53 465.505C1199.41 466.026 1199.39 466.715 1198.84 466.951C1198.48 467.094 1198.04 466.91 1197.93 466.505C1197.34 462.536 1197.34 458.474 1196.56 454.523C1195.95 451.874 1195.38 449.168 1194.34 446.653C1193.66 445.12 1192.26 444.108 1191.01 443.085C1189.1 441.728 1186.77 441.192 1184.48 441.095C1183.69 440.847 1183.94 439.678 1184.76 439.749C1186.53 439.704 1188.22 439.697 1189.95 439.502C1190.74 439.299 1191.33 438.962 1192.04 438.625C1193.28 437.973 1194.67 437.485 1195.71 436.507C1196.28 434.06 1197.33 431.755 1197.78 429.281C1198.5 425.627 1198.93 421.857 1199.7 418.255C1200.01 417.82 1200.73 417.974 1200.85 418.487C1200.96 418.96 1201 419.458 1201.05 419.945C1201.38 423.39 1201.26 426.83 1202.01 430.211C1202.28 431.481 1202.51 432.714 1202.61 434.004C1202.83 435.139 1202.6 436.811 1203.57 437.587C1205.4 438.823 1207.58 439.157 1209.74 439.086C1212.04 439.022 1214.34 438.898 1216.64 438.936C1216.94 438.947 1217.26 438.895 1217.55 438.996ZM1215.37 440.293C1211.19 440.143 1204.69 441.623 1201.89 437.605C1201.26 435.821 1201.38 433.872 1201.02 432.025C1200.9 431.406 1200.78 430.807 1200.66 430.203C1200.21 428.134 1200.1 425.998 1199.98 423.914C1199.55 426.482 1199.2 429.075 1198.49 431.586C1198.09 433.085 1197.55 434.386 1197.12 435.84C1197.67 436.32 1197.13 436.987 1196.74 437.377C1196.74 437.403 1196.73 437.429 1196.73 437.455C1196.68 437.699 1196.64 437.946 1196.62 438.194C1197.17 439.453 1195.27 439.955 1195.42 438.396C1193.63 439.329 1191.84 440.472 1189.86 440.888C1191.01 441.394 1192.09 442.129 1193 442.984C1193.93 443.778 1194.93 444.708 1195.43 445.847C1196.06 447.095 1196.42 448.452 1196.77 449.805C1197.57 452.612 1198.17 455.288 1198.43 458.166C1198.56 459.257 1198.66 460.355 1198.75 461.453C1198.87 458.208 1199.46 455.059 1200.17 451.915C1200.71 449.79 1201.06 447.459 1202.46 445.716C1204.45 443.726 1207.12 442.759 1209.76 442.043C1211.63 441.488 1213.64 441.218 1215.37 440.293Z" fill="white"/>
<path d="M1201.89 437.605C1204.69 441.623 1211.18 440.143 1215.37 440.292C1213.64 441.218 1211.63 441.488 1209.76 442.043C1207.12 442.759 1204.45 443.726 1202.46 445.716C1201.05 447.458 1200.71 449.79 1200.17 451.915C1199.46 455.059 1198.87 458.207 1198.75 461.453C1198.66 460.355 1198.55 459.257 1198.43 458.166C1198.16 455.288 1197.57 452.612 1196.77 449.805C1196.42 448.452 1196.05 447.095 1195.43 445.847C1194.93 444.708 1193.93 443.778 1192.99 442.983C1192.09 442.129 1191.01 441.394 1189.86 440.888C1191.84 440.472 1193.63 439.329 1195.42 438.396C1195.27 439.955 1197.17 439.453 1196.61 438.194C1196.64 437.946 1196.68 437.699 1196.73 437.455C1196.73 437.429 1196.74 437.403 1196.74 437.377C1197.13 436.987 1197.67 436.32 1197.11 435.84C1197.55 434.386 1198.09 433.085 1198.48 431.586C1199.2 429.075 1199.54 426.481 1199.98 423.914C1200.1 425.998 1200.21 428.134 1200.66 430.203C1200.78 430.807 1200.9 431.406 1201.02 432.025C1201.37 433.872 1201.26 435.821 1201.89 437.605Z" fill="white"/>
</g>
<g clip-path="url(#clip3_85_474)">
<path d="M199.387 746.424C200.174 746.698 200.164 747.518 199.577 747.976C195.233 751.158 189.095 750.941 184.124 753.029C182.38 753.927 180.343 754.768 179.466 756.46C177.937 759.603 177.364 763.004 176.552 766.322C176.034 768.742 175.824 771.231 175.68 773.672C175.575 774.885 175.271 776.07 175.012 777.261C174.843 777.867 174.823 778.669 174.071 778.943C173.588 779.109 172.99 778.896 172.85 778.425C172.053 773.808 172.043 769.082 170.997 764.486C170.17 761.404 169.398 758.256 167.988 755.331C167.067 753.548 165.174 752.371 163.485 751.18C160.895 749.602 157.751 748.979 154.653 748.865C153.582 748.577 153.92 747.217 155.031 747.3C157.422 747.248 159.709 747.239 162.055 747.012C163.116 746.777 163.918 746.385 164.88 745.992C166.559 745.234 168.442 744.667 169.846 743.529C170.614 740.682 172.033 738.001 172.636 735.123C173.618 730.872 174.195 726.486 175.247 722.297C175.655 721.791 176.631 721.97 176.796 722.567C176.95 723.116 177.005 723.696 177.065 724.263C177.513 728.27 177.354 732.272 178.365 736.204C178.729 737.682 179.043 739.117 179.177 740.617C179.481 741.938 179.162 743.882 180.472 744.784C182.948 746.223 185.907 746.611 188.826 746.528C191.935 746.454 195.048 746.31 198.162 746.354C198.57 746.367 198.994 746.306 199.387 746.424ZM196.438 747.932C190.779 747.758 181.992 749.48 178.206 744.806C177.349 742.731 177.508 740.464 177.025 738.315C176.861 737.595 176.701 736.898 176.537 736.196C175.934 733.789 175.785 731.304 175.615 728.88C175.032 731.866 174.564 734.883 173.598 737.804C173.06 739.548 172.327 741.061 171.744 742.753C172.492 743.311 171.764 744.087 171.241 744.54C171.236 744.571 171.226 744.601 171.221 744.632C171.157 744.915 171.102 745.203 171.067 745.491C171.819 746.956 169.249 747.54 169.453 745.726C167.032 746.812 164.611 748.142 161.926 748.625C163.485 749.214 164.94 750.069 166.17 751.063C167.44 751.987 168.785 753.068 169.463 754.393C170.31 755.845 170.808 757.424 171.276 758.997C172.357 762.263 173.164 765.376 173.518 768.724C173.692 769.993 173.832 771.27 173.961 772.548C174.116 768.772 174.913 765.11 175.874 761.452C176.611 758.98 177.075 756.268 178.978 754.241C181.668 751.926 185.274 750.801 188.846 749.968C191.377 749.323 194.102 749.009 196.438 747.932Z" fill="white"/>
<path d="M178.206 744.806C181.992 749.48 190.779 747.758 196.438 747.932C194.102 749.009 191.377 749.323 188.846 749.968C185.274 750.801 181.668 751.926 178.978 754.241C177.075 756.268 176.612 758.98 175.874 761.452C174.913 765.11 174.116 768.772 173.961 772.547C173.832 771.27 173.692 769.993 173.518 768.724C173.164 765.376 172.357 762.263 171.276 758.997C170.808 757.423 170.31 755.845 169.463 754.393C168.785 753.068 167.44 751.987 166.17 751.062C164.94 750.068 163.485 749.214 161.926 748.625C164.611 748.141 167.032 746.812 169.453 745.726C169.249 747.54 171.819 746.955 171.067 745.491C171.102 745.203 171.157 744.915 171.221 744.632C171.226 744.601 171.236 744.571 171.241 744.54C171.764 744.087 172.492 743.311 171.744 742.753C172.327 741.061 173.06 739.548 173.598 737.804C174.564 734.883 175.032 731.866 175.615 728.88C175.785 731.304 175.934 733.789 176.537 736.196C176.701 736.897 176.861 737.595 177.025 738.314C177.508 740.464 177.349 742.731 178.206 744.806Z" fill="white"/>
</g>
<defs>
<clipPath id="clip0_85_474">
<rect width="1401" height="1083" fill="white"/>
</clipPath>
<clipPath id="clip1_85_474">
<rect width="50" height="82" fill="white" transform="translate(970 172)"/>
</clipPath>
<clipPath id="clip2_85_474">
<rect width="34" height="49" fill="white" transform="translate(1184 418)"/>
</clipPath>
<clipPath id="clip3_85_474">
<rect width="46" height="57" fill="white" transform="translate(154 722)"/>
</clipPath>
</defs>
</svg>
