<svg width="740" height="161" viewBox="0 0 740 161" fill="none" xmlns="http://www.w3.org/2000/svg">
<path d="M636.333 152.739C651.393 154.576 666.467 156.791 681.672 156.586C683.327 156.597 684.96 156.57 686.609 156.483C686.868 157.168 687.544 157.687 688.689 157.662C693.279 156.461 697.952 156.126 702.66 155.654C709.488 153.918 716.573 152.753 723.632 153.483C726.874 153.829 730.131 153.188 733.336 153.736C734.872 153.83 736.341 154.427 737.88 154.262C739.125 154.101 739.939 152.672 739.441 151.534C738.386 149.729 735.863 149.864 734.028 149.61C731.042 149.591 728.046 149.422 725.103 148.927C713.774 146.442 702.84 142.452 692.044 138.303C685.63 136.23 679.22 134.142 672.897 131.784C664.308 129.141 655.481 127.28 646.944 124.439C640.486 121.851 633.905 119.734 627.286 117.575C621.861 115.697 617.063 112.422 611.708 110.4C607.656 108.865 603.372 107.969 599.352 106.313C593.794 103.765 588.352 100.468 584.043 96.0702C572.538 81.0546 552.796 77.1759 535.1 74.4841C528.748 73.9071 522.363 74.2641 516.004 74.7092C513.138 74.8514 510.398 75.3193 507.534 74.6492C507.489 74.5724 506.835 74.4008 506.68 74.2465C506.248 67.4677 503.703 61.2404 500.975 55.0949C498.476 48.9444 495.438 42.864 490.783 38.0501C486.029 32.9338 480.34 28.8403 474.886 24.5321C468.498 19.5723 462.066 14.4061 454.586 11.1919C447.027 8.21713 439.008 6.68254 431.155 4.70362C421.685 2.69073 412.048 0.942866 402.332 0.799805C389.001 1.23656 375.895 5.27638 363.579 10.2064C359.784 11.8444 356.216 13.9809 352.889 16.4406C351.696 17.3307 350.515 18.24 349.269 19.0837C348.976 19.3321 348.568 19.3388 348.289 19.0381C345.651 16.9479 342.937 14.9027 339.868 13.4635C333.704 10.8711 327.008 9.74846 320.503 8.26954C314.231 7.07938 307.785 6.11986 301.407 6.88507C283.5 9.51911 269.129 22.2823 256.815 34.7069C234.934 56.0829 222.301 77.2189 188.546 79.5969C170.224 80.5289 151.469 74.438 133.565 80.7145C123.701 83.7354 114.467 88.3845 104.919 92.1871C98.2606 94.6997 91.0852 95.4671 84.0025 95.1372C50.4697 93.1354 14.9202 87.1094 -16.7053 101.881C-24.8838 105.604 -31.9146 111.335 -39.8767 115.473C-50.2657 120.372 -61.2931 123.429 -72.4448 126.339C-81.9617 129.711 -91.0825 134.114 -100.905 136.544C-109.003 138.907 -117.196 140.951 -125.199 143.631C-128.521 144.646 -131.524 146.361 -135.008 146.878C-136.298 146.588 -137.77 147.243 -138.345 148.506C-135.346 148.041 -132.346 147.576 -129.362 147.107C-132.35 147.591 -135.35 148.056 -138.345 148.506C-138.704 148.574 -139.06 148.627 -139.415 148.681C-140.624 149.014 -143.308 149.269 -142.647 151.084C-142.356 151.648 -141.523 151.883 -141.042 151.473C-140.136 151.369 -139.243 151.246 -138.333 151.126C-138.244 151.28 -138.108 151.381 -137.937 151.474C-137.354 151.855 -136.617 151.463 -136.435 150.893C-126.68 149.648 -116.975 148.162 -107.32 146.371C-96.1153 144.498 -85.0252 141.637 -73.676 140.761C-62.0342 140.32 -50.6315 143.393 -39.0067 143.76C-21.0057 144.857 -3.11843 140.625 14.8836 141.966C26.2824 143.071 37.5635 145.12 48.9823 146.149C70.3918 148.01 91.8348 149.62 112.93 153.919C125.88 156.731 138.924 159.373 152.165 160.212C163.94 161.058 175.715 159.986 187.492 159.775C204.068 159.36 220.616 161.783 237.212 160.675C251.885 159.712 266.387 157.29 281.05 156.179C293.681 155.25 306.378 155.931 319.013 154.986C344.977 153.555 370.748 151.31 396.753 153.808C421.628 155.782 446.378 149.871 471.278 152.615C502.453 155.055 533.566 150.602 564.751 151.452C577.572 151.596 590.367 150.726 603.188 150.497C614.288 150.45 625.334 151.349 636.333 152.739ZM692.757 153.869C692.736 153.701 692.684 153.525 692.61 153.375C692.684 153.525 692.72 153.697 692.757 153.869ZM-136.245 149.61C-136.326 149.67 -136.38 149.753 -136.438 149.852C-136.384 149.768 -136.33 149.685 -136.245 149.61C-135.005 149.903 -133.803 149.844 -132.614 149.587C-133.799 149.829 -135.02 149.899 -136.245 149.61Z" fill="white"/>
</svg>
