<svg width="688" height="160" viewBox="0 0 688 160" fill="none" xmlns="http://www.w3.org/2000/svg">
<path d="M104 153.297C88.9578 155.212 73.9028 157.505 58.7041 157.38C57.0498 157.4 55.4178 157.382 53.7694 157.303C53.5142 157.989 52.8405 158.512 51.6965 158.493C47.1017 157.316 42.43 157.005 37.7217 156.559C30.8878 154.859 23.8005 153.731 16.7488 154.498C13.5105 154.861 10.2518 154.238 7.0512 154.802C5.51653 154.904 4.05119 155.509 2.51211 155.351C1.26667 155.197 0.445902 153.773 0.937594 152.633C1.98223 150.823 4.5044 150.945 6.33756 150.682C9.32218 150.647 12.3158 150.463 15.2542 149.952C26.565 147.409 37.473 143.364 48.2412 139.161C54.6412 137.055 61.0372 134.935 67.3448 132.545C75.9158 129.858 84.7287 127.952 93.2468 125.067C99.6877 122.447 106.255 120.297 112.859 118.104C118.271 116.198 123.05 112.9 128.391 110.85C132.433 109.296 136.71 108.377 140.72 106.701C146.262 104.126 151.684 100.802 155.968 96.3833C167.388 81.3149 187.1 77.3348 204.774 74.5517C211.119 73.9417 217.503 74.2652 223.861 74.6767C226.726 74.8039 229.468 75.2572 232.327 74.5724C232.371 74.4954 233.024 74.3205 233.178 74.1654C233.575 67.3877 236.085 61.1502 238.78 54.9935C241.246 48.833 244.25 42.7397 248.878 37.9039C253.602 32.7652 259.267 28.6439 264.696 24.3093C271.055 19.3186 277.456 14.1212 284.916 10.8695C292.456 7.85661 300.462 6.28081 308.301 4.26175C317.756 2.20028 327.378 0.402849 337.089 0.208984C350.416 0.575727 363.537 4.54492 375.872 9.40802C379.674 11.0254 383.251 13.1421 386.59 15.5831C387.787 16.4666 388.972 17.3692 390.222 18.206C390.516 18.4527 390.924 18.4573 391.201 18.1552C393.826 16.0523 396.529 13.9939 399.589 12.5394C405.736 9.91594 412.423 8.75883 418.917 7.2466C425.179 6.0242 431.617 5.0314 437.996 5.76283C455.908 8.30181 470.338 20.9834 482.712 33.3374C504.693 54.5882 517.431 75.6475 551.181 77.8476C569.499 78.6832 588.214 72.4972 606.141 78.6768C616.016 81.6445 625.27 86.243 634.833 89.9938C641.501 92.4703 648.677 93.1997 655.754 92.8329C689.26 90.6566 724.76 84.4474 756.447 99.0461C764.641 102.725 771.699 108.416 779.678 112.51C790.088 117.352 801.126 120.35 812.287 123.2C821.817 126.521 830.956 130.874 840.787 133.251C848.893 135.57 857.093 137.571 865.106 140.208C868.432 141.204 871.441 142.903 874.927 143.401C876.214 143.105 877.689 143.751 878.271 145.011C875.27 144.562 872.27 144.113 869.285 143.66C872.274 144.128 875.274 144.577 878.271 145.011C878.63 145.077 878.986 145.129 879.341 145.18C880.551 145.506 883.236 145.747 882.584 147.565C882.296 148.131 881.465 148.37 880.982 147.962C880.076 147.863 879.182 147.745 878.273 147.63C878.184 147.784 878.048 147.886 877.878 147.98C877.298 148.363 876.559 147.975 876.374 147.407C866.617 146.214 856.909 144.78 847.25 143.04C836.041 141.227 824.942 138.424 813.593 137.609C801.955 137.229 790.574 140.36 778.957 140.788C760.971 141.979 743.07 137.842 725.084 139.277C713.697 140.441 702.432 142.548 691.024 143.636C669.635 145.608 648.211 147.33 627.149 151.737C614.22 154.615 601.196 157.324 587.967 158.233C576.202 159.14 564.427 158.129 552.655 157.98C536.085 157.653 519.558 160.161 502.964 159.14C488.294 158.255 473.786 155.91 459.125 154.876C446.495 154.013 433.808 154.76 421.174 153.882C395.216 152.588 369.446 150.479 343.467 153.112C318.614 155.215 293.846 149.436 268.972 152.31C237.826 154.912 206.705 150.624 175.54 151.636C162.726 151.848 149.933 151.045 137.117 150.883C126.023 150.895 114.986 151.85 104 153.297ZM47.6109 154.722C47.6309 154.554 47.6813 154.378 47.755 154.228C47.6813 154.378 47.646 154.55 47.6109 154.722ZM876.177 146.125C876.258 146.185 876.313 146.268 876.372 146.366C876.317 146.283 876.263 146.2 876.177 146.125C874.94 146.424 873.738 146.372 872.548 146.121C873.734 146.357 874.955 146.42 876.177 146.125Z" fill="white"/>
</svg>
