<svg width="700" height="187" viewBox="0 0 700 187" fill="none" xmlns="http://www.w3.org/2000/svg">
<path d="M580.354 176.538C597.771 178.663 615.205 181.225 632.791 180.987C634.706 181.001 636.594 180.97 638.501 180.868C638.8 181.661 639.583 182.261 640.907 182.233C646.216 180.843 651.62 180.456 657.065 179.91C664.963 177.902 673.157 176.554 681.321 177.399C685.07 177.799 688.837 177.058 692.544 177.692C694.321 177.801 696.02 178.491 697.8 178.3C699.24 178.113 700.181 176.461 699.605 175.144C698.385 173.057 695.468 173.213 693.345 172.919C689.891 172.897 686.426 172.702 683.023 172.129C669.92 169.256 657.273 164.641 644.788 159.842C637.369 157.445 629.956 155.03 622.643 152.303C612.709 149.245 602.499 147.094 592.625 143.808C585.157 140.814 577.545 138.366 569.889 135.869C563.615 133.696 558.066 129.909 551.873 127.57C547.187 125.795 542.232 124.758 537.583 122.843C531.154 119.897 524.859 116.083 519.876 110.997C506.57 93.6301 483.737 89.144 463.27 86.0309C455.924 85.3635 448.539 85.7764 441.184 86.2911C437.869 86.4557 434.7 86.9968 431.388 86.2218C431.336 86.1329 430.579 85.9345 430.4 85.756C429.9 77.9159 426.957 70.7135 423.802 63.6058C420.911 56.4923 417.398 49.4599 412.014 43.8923C406.516 37.9749 399.936 33.2405 393.628 28.2577C386.24 22.5214 378.801 16.5462 370.15 12.8288C361.407 9.38825 352.133 7.61338 343.05 5.32462C332.098 2.99656 320.952 0.975039 309.714 0.80957C294.296 1.31472 279.137 5.98705 264.894 11.689C260.505 13.5835 256.378 16.0545 252.529 18.8993C251.15 19.9288 249.784 20.9804 248.343 21.9563C248.004 22.2435 247.532 22.2513 247.21 21.9035C244.159 19.4861 241.019 17.1206 237.47 15.4561C230.341 12.4577 222.596 11.1593 215.073 9.44887C207.819 8.07236 200.364 6.96261 192.987 7.84762C172.276 10.8941 155.656 25.6556 141.413 40.0256C116.106 64.7485 101.496 89.1938 62.4553 91.9441C41.2645 93.022 19.5724 85.9775 -1.13419 93.2367C-12.5424 96.7306 -23.2225 102.108 -34.2661 106.506C-41.9665 109.412 -50.2654 110.299 -58.4571 109.918C-97.2401 107.602 -138.356 100.633 -174.933 117.717C-184.392 122.023 -192.524 128.652 -201.732 133.437C-213.748 139.103 -226.502 142.639 -239.4 146.005C-250.407 149.905 -260.956 154.997 -272.316 157.808C-281.682 160.54 -291.158 162.905 -300.414 166.005C-304.256 167.178 -307.729 169.162 -311.759 169.76C-313.25 169.425 -314.953 170.181 -315.618 171.643C-312.149 171.105 -308.68 170.567 -305.229 170.025C-308.685 170.585 -312.154 171.122 -315.618 171.643C-316.034 171.722 -316.445 171.783 -316.856 171.844C-318.254 172.23 -321.359 172.524 -320.593 174.624C-320.257 175.277 -319.294 175.548 -318.737 175.074C-317.69 174.953 -316.656 174.811 -315.605 174.673C-315.501 174.851 -315.344 174.967 -315.146 175.076C-314.472 175.516 -313.62 175.062 -313.409 174.403C-302.126 172.963 -290.902 171.245 -279.735 169.173C-266.776 167.008 -253.95 163.698 -240.824 162.685C-227.359 162.175 -214.171 165.729 -200.726 166.154C-179.907 167.423 -159.219 162.528 -138.398 164.079C-125.215 165.356 -112.167 167.726 -98.9606 168.916C-74.1989 171.069 -49.3985 172.931 -25.0003 177.903C-10.0222 181.155 5.06412 184.21 20.3774 185.182C33.9967 186.16 47.6153 184.92 61.2355 184.676C80.4078 184.197 99.5466 186.999 118.741 185.717C135.711 184.603 152.484 181.802 169.442 180.517C184.052 179.442 198.736 180.23 213.35 179.137C243.379 177.482 273.184 174.885 303.262 177.775C332.032 180.058 360.656 173.221 389.456 176.395C425.511 179.217 461.496 174.067 497.564 175.049C512.392 175.217 527.19 174.21 542.019 173.945C554.857 173.891 567.633 174.93 580.354 176.538ZM645.611 177.845C645.587 177.651 645.528 177.447 645.442 177.274C645.528 177.447 645.57 177.646 645.611 177.845ZM-313.189 172.919C-313.283 172.989 -313.346 173.085 -313.413 173.199C-313.35 173.103 -313.287 173.006 -313.189 172.919C-311.755 173.258 -310.365 173.19 -308.989 172.893C-310.36 173.172 -311.773 173.253 -313.189 172.919Z" fill="white"/>
</svg>
