<svg width="46" height="57" viewBox="0 0 46 57" fill="none" xmlns="http://www.w3.org/2000/svg">
<g clip-path="url(#clip0_15276_45059)">
<path d="M45.3873 24.4239C46.1744 24.6986 46.1645 25.5182 45.5766 25.976C41.2327 29.1587 35.0954 28.9407 30.1237 31.029C28.3802 31.9271 26.3427 32.7686 25.4659 34.4602C23.9366 37.6036 23.3637 41.0042 22.5517 44.3221C22.0336 46.7417 21.8244 49.2312 21.6799 51.6727C21.5753 52.8847 21.2714 54.0706 21.0124 55.2608C20.843 55.8668 20.8231 56.669 20.0709 56.9437C19.5877 57.1093 18.9899 56.8957 18.8504 56.4249C18.0533 51.8078 18.0434 47.0818 16.9972 42.4866C16.1703 39.4042 15.3982 36.2564 13.9884 33.331C13.0668 31.5478 11.1738 30.3707 9.48501 29.1805C6.89458 27.6022 3.7512 26.9788 0.652647 26.8654C-0.418395 26.5777 -0.0796466 25.2174 1.03125 25.3003C3.42241 25.2479 5.70896 25.2392 8.05529 25.0125C9.11637 24.7771 9.9184 24.3847 10.8799 23.9923C12.5586 23.2337 14.4417 22.6669 15.8465 21.529C16.6137 18.6821 18.0334 16.0008 18.6362 13.1233C19.6176 8.87254 20.1954 4.48658 21.2465 0.296816C21.655 -0.208921 22.6314 -0.0301693 22.7958 0.567123C22.9502 1.11646 23.005 1.69631 23.0648 2.26308C23.5132 6.26974 23.3538 10.272 24.365 14.2046C24.7287 15.6825 25.0425 17.1169 25.177 18.6167C25.4809 19.9377 25.1621 21.8822 26.4722 22.7847C28.9481 24.2234 31.9071 24.6114 34.8264 24.5286C37.9349 24.4545 41.0484 24.3106 44.1619 24.3542C44.5703 24.3673 44.9938 24.3062 45.3873 24.4239ZM42.4382 25.9324C36.7791 25.758 27.9916 27.4802 24.2056 22.8065C23.3488 20.7312 23.5082 18.4641 23.025 16.3147C22.8606 15.5953 22.7012 14.8978 22.5368 14.1959C21.934 11.7892 21.7846 9.30416 21.6152 6.88011C21.0323 9.86657 20.5641 12.8836 19.5976 15.8046C19.0596 17.5485 18.3273 19.0614 17.7445 20.753C18.4917 21.311 17.7644 22.0871 17.2413 22.5405C17.2364 22.571 17.2264 22.6015 17.2214 22.6321C17.1567 22.9154 17.1019 23.2032 17.067 23.4909C17.8192 24.9558 15.2487 25.54 15.453 23.7264C13.0319 24.812 10.6108 26.1417 7.92577 26.6256C9.48501 27.2142 10.9396 28.0687 12.1701 29.0628C13.4404 29.987 14.7854 31.0683 15.4629 32.3937C16.3098 33.8455 16.8079 35.4237 17.2762 36.9976C18.3572 40.2631 19.1642 43.376 19.5179 46.7243C19.6923 47.993 19.8318 49.2704 19.9613 50.5478C20.1157 46.7723 20.9128 43.11 21.8742 39.4522C22.6115 36.9802 23.0748 34.2684 24.9778 32.2411C27.6678 29.926 31.2745 28.8012 34.8463 27.9685C37.3769 27.3232 40.1019 27.0093 42.4382 25.9324Z" fill="white"/>
<path d="M24.2056 22.8062C27.9916 27.4799 36.7792 25.7578 42.4382 25.9322C40.1019 27.0091 37.3769 27.323 34.8463 27.9682C31.2745 28.8009 27.6678 29.9258 24.9778 32.2408C23.0748 34.2681 22.6115 36.9799 21.8742 39.4519C20.9128 43.1098 20.1157 46.772 19.9613 50.5476C19.8318 49.2702 19.6923 47.9928 19.5179 46.7241C19.1642 43.3758 18.3572 40.2629 17.2762 36.9974C16.808 35.4235 16.3098 33.8452 15.4629 32.3934C14.7854 31.068 13.4404 29.9868 12.1701 29.0625C10.9396 28.0685 9.48502 27.214 7.92578 26.6254C10.6109 26.1415 13.0319 24.8117 15.453 23.7261C15.2487 25.5398 17.8192 24.9556 17.067 23.4907C17.1019 23.203 17.1567 22.9152 17.2214 22.6318C17.2264 22.6013 17.2364 22.5708 17.2414 22.5403C17.7644 22.0869 18.4917 21.3108 17.7445 20.7528C18.3273 19.0612 19.0596 17.5483 19.5976 15.8044C20.5641 12.8833 21.0323 9.86634 21.6152 6.87988C21.7846 9.30393 21.934 11.789 22.5368 14.1956C22.7012 14.8976 22.8606 15.5951 23.025 16.3145C23.5082 18.4639 23.3488 20.731 24.2056 22.8062Z" fill="white"/>
</g>
<defs>
<clipPath id="clip0_15276_45059">
<rect width="46" height="57" fill="white"/>
</clipPath>
</defs>
</svg>
