<svg width="192" height="14" viewBox="0 0 192 14" fill="none" xmlns="http://www.w3.org/2000/svg">
<path d="M171.424 8.87585L166.909 0.298242H163.76V13.7309H167.124V7.8398L170.425 13.7309H172.398L175.724 7.8398V13.7309H179.088V0.310289H175.926L171.411 8.8879L171.424 8.87585ZM151.177 7.00854C151.177 8.96019 152.834 10.5384 154.882 10.5384C156.931 10.5384 158.588 8.96019 158.588 7.00854C158.588 5.05689 156.931 3.47871 154.882 3.47871C152.834 3.47871 151.177 5.05689 151.177 7.00854ZM154.882 0.0332036C158.929 0.0332036 162.205 3.15343 162.205 7.00854C162.205 10.8636 158.929 13.9839 154.882 13.9839C150.835 13.9839 147.56 10.8636 147.56 7.00854C147.56 3.15343 150.835 0.0332036 154.882 0.0332036ZM135.356 7.00854C135.356 8.96019 137.013 10.5384 139.062 10.5384C141.11 10.5384 142.767 8.96019 142.767 7.00854C142.767 5.05689 141.11 3.47871 139.062 3.47871C137.013 3.47871 135.356 5.05689 135.356 7.00854ZM139.062 0.0332036C143.108 0.0332036 146.384 3.15343 146.384 7.00854C146.384 10.8636 143.108 13.9839 139.062 13.9839C135.015 13.9839 131.739 10.8636 131.739 7.00854C131.739 3.15343 135.015 0.0332036 139.062 0.0332036ZM121.963 3.298H124.126C124.758 3.24981 125.391 3.44256 125.884 3.81603C126.288 4.20154 126.516 4.73162 126.478 5.27374C126.516 5.81586 126.288 6.34594 125.884 6.7194C125.391 7.09287 124.758 7.27358 124.126 7.22539H121.963V3.298ZM130.55 13.7309L127.578 9.58664C128.388 9.21318 129.083 8.63491 129.564 7.91208C130.057 7.11696 130.31 6.21342 130.285 5.28579C130.31 4.35815 130.057 3.44256 129.564 2.6354C129.071 1.87643 128.35 1.28611 127.503 0.91265C126.516 0.490997 125.441 0.286195 124.354 0.310289H118.22V13.7188H121.951V10.2131H123.747L126.263 13.7188H130.563L130.55 13.7309ZM62.651 9.82758L65.1298 12.6346C61.8543 14.8995 57.2762 14.2128 54.8987 11.0925C52.5211 7.97231 53.242 3.61122 56.5175 1.34635C59.0847 -0.436638 62.5625 -0.436638 65.1298 1.34635L62.6384 4.18949C60.9943 3.22571 58.8444 3.71965 57.8327 5.28579C56.821 6.85192 57.3395 8.89995 58.9835 9.86373C60.1091 10.5263 61.5255 10.5263 62.651 9.86373M11.6348 6.99649C11.6348 10.8516 8.33408 13.9718 4.28718 13.9598C2.7443 13.9598 1.23936 13.4899 0 12.6225L2.47872 9.81554C4.12278 10.7793 6.27269 10.2854 7.28442 8.71924C8.29614 7.1531 7.77763 5.10508 6.13358 4.1413C5.00804 3.47871 3.59162 3.47871 2.46608 4.1413L0 1.3343C3.27546 -0.930573 7.85351 -0.243882 10.2311 2.87634C11.1416 4.06902 11.6348 5.50264 11.6348 6.98444M104.347 9.64688C104.347 10.4179 104.119 11.1889 103.676 11.8395C103.171 12.5262 102.475 13.0683 101.666 13.4056C100.641 13.8152 99.5284 14.02 98.4155 13.9839C97.3532 13.9839 96.2909 13.8514 95.2539 13.5863C94.3686 13.3695 93.5213 13.008 92.7625 12.5141L94.8239 10.177C95.2286 10.3818 95.6585 10.5504 96.1012 10.6709C96.8473 10.9118 97.6441 11.0323 98.4281 11.0323C99.8825 11.0323 100.603 10.6709 100.603 9.93601C100.603 9.5505 100.363 9.21318 99.9837 9.08066C99.3387 8.82767 98.6684 8.63491 97.9855 8.49034C97.1255 8.32168 96.2782 8.08074 95.4688 7.79161C94.7859 7.53861 94.1915 7.12901 93.7363 6.59893C93.2178 5.96043 92.9648 5.17736 93.0154 4.3702C93.0154 3.58713 93.2304 2.81611 93.6857 2.15351C94.1789 1.45477 94.8745 0.91265 95.6838 0.587375C96.7209 0.17777 97.8211 -0.00293805 98.9466 0.0211564C99.8193 0.0211564 100.692 0.129581 101.552 0.322337C102.349 0.490998 103.12 0.780131 103.816 1.17769L101.729 3.55099C100.856 3.17753 99.9078 2.97272 98.9466 2.96068C98.3775 2.91249 97.8085 3.03296 97.3026 3.28595C96.9864 3.46666 96.7841 3.80398 96.7841 4.15335C96.7841 4.51477 97.037 4.84004 97.3911 4.96051C98.0234 5.2135 98.6811 5.39421 99.364 5.51468C100.224 5.68334 101.071 5.92429 101.906 6.21342C102.576 6.46641 103.171 6.87602 103.639 7.4061C104.157 8.03255 104.423 8.81562 104.372 9.62278M86.338 8.29759L84.6181 3.99674L82.8855 8.29759H86.3507H86.338ZM92.4337 13.7068H88.5132L87.4762 11.1046H81.7979L80.7609 13.7068H76.9037L82.7843 0.310289H86.5151L92.4337 13.7309V13.7068ZM76.069 10.695V13.7068H66.5715V0.310289H70.3528V10.7191H76.069V10.695ZM51.9268 0.310289V13.7309H48.8031L42.8971 6.57484V13.7309H39.1917V0.310289H42.3154L48.2213 7.46633V0.310289H51.9268ZM37.4338 10.8034V13.7309H26.7854V0.310289H37.1809V3.23776H30.5288V5.49059H35.853V8.33373H30.5288V10.7914H37.4212L37.4338 10.8034ZM21.4106 5.28579C21.4486 4.74366 21.2209 4.20154 20.8162 3.82807C20.323 3.45461 19.6907 3.26186 19.0584 3.31004H16.9717V7.23743H19.0584C19.6907 7.28562 20.323 7.10492 20.8162 6.73145C21.2336 6.35799 21.4486 5.82791 21.4106 5.28579ZM25.2425 5.28579C25.2678 6.21342 25.0149 7.11696 24.5217 7.91208C24.0285 8.65901 23.3076 9.26136 22.4603 9.62278C21.4739 10.0444 20.3989 10.2492 19.3113 10.2251H16.9843V13.7309H13.1777V0.310289H19.2986C20.3862 0.286195 21.4612 0.490997 22.4476 0.91265C23.295 1.28611 24.0158 1.87643 24.509 2.6354C25.0149 3.43052 25.2678 4.35815 25.2299 5.28579M192 9.65892C192 10.4299 191.772 11.201 191.33 11.8515C190.824 12.5382 190.128 13.0803 189.319 13.4177C188.295 13.8273 187.182 14.0321 186.069 13.9959C185.006 13.9959 183.944 13.8634 182.92 13.5984C182.022 13.3815 181.187 13.0201 180.428 12.5262L182.477 10.2131C182.882 10.4058 183.312 10.5745 183.742 10.707C184.501 10.948 185.285 11.0684 186.081 11.0684C187.536 11.0684 188.257 10.707 188.257 9.97215C188.257 9.58664 188.016 9.24932 187.637 9.1168C186.992 8.86381 186.322 8.65901 185.639 8.52649C184.779 8.35783 183.931 8.11688 183.122 7.82775C182.439 7.5868 181.845 7.16515 181.39 6.63507C180.871 5.99657 180.618 5.2135 180.656 4.40634C180.656 3.62327 180.884 2.85225 181.326 2.2017C181.82 1.50296 182.515 0.960839 183.324 0.635564C184.349 0.225959 185.462 0.0332036 186.587 0.057298C187.46 0.057298 188.333 0.153676 189.192 0.358478C189.989 0.539186 190.748 0.828319 191.444 1.22588L189.357 3.59918C188.484 3.22571 187.536 3.02091 186.575 3.00886C186.006 2.96068 185.436 3.08115 184.931 3.33414C184.614 3.51485 184.412 3.85217 184.412 4.20154C184.412 4.56295 184.665 4.88823 185.019 5.0087C185.651 5.24964 186.309 5.4424 186.992 5.56287C187.852 5.73153 188.699 5.97248 189.521 6.26161C190.192 6.5146 190.799 6.92421 191.254 7.45428C191.772 8.08074 192.038 8.86381 191.987 9.67097M116.639 9.65892C116.639 10.4299 116.412 11.201 115.969 11.8515C115.463 12.5382 114.767 13.0803 113.958 13.4177C112.934 13.8273 111.821 14.0321 110.708 13.9959C109.646 13.9959 108.583 13.8634 107.546 13.5984C106.661 13.3815 105.814 13.0201 105.068 12.5262L107.116 10.2131C107.521 10.4058 107.951 10.5745 108.381 10.707C109.14 10.948 109.924 11.0684 110.708 11.0684C112.162 11.0684 112.896 10.707 112.896 9.97215C112.896 9.58664 112.656 9.24932 112.276 9.1168C111.631 8.86381 110.961 8.67105 110.278 8.52649C109.418 8.34578 108.583 8.10483 107.774 7.8157C107.091 7.57476 106.497 7.1531 106.041 6.62303C105.523 5.98452 105.27 5.20146 105.308 4.39429C105.308 3.61122 105.535 2.8402 105.978 2.17761C106.471 1.47887 107.167 0.936744 107.976 0.61147C109.001 0.201864 110.114 0.00910916 111.239 0.0332036C112.112 0.0332036 112.984 0.129581 113.844 0.334384C114.641 0.503045 115.4 0.804225 116.095 1.20178L114.009 3.57508C113.136 3.20162 112.188 2.99682 111.226 2.98477C110.657 2.93658 110.088 3.05705 109.582 3.31004C109.266 3.49075 109.064 3.82807 109.064 4.17744C109.064 4.53886 109.317 4.86413 109.684 4.97256C110.316 5.22555 110.974 5.40626 111.656 5.52673C112.516 5.69539 113.364 5.93634 114.186 6.22547C114.856 6.47846 115.45 6.88807 115.918 7.41814C116.437 8.0446 116.702 8.82767 116.652 9.63483" fill="white"/>
</svg>
