<svg width="737" height="214" viewBox="0 0 737 214" fill="none" xmlns="http://www.w3.org/2000/svg">
<path d="M599.081 202.256C619.121 204.701 639.18 207.648 659.414 207.375C661.617 207.391 663.79 207.355 665.984 207.238C666.328 208.151 667.229 208.841 668.752 208.808C674.861 207.209 681.079 206.763 687.344 206.136C696.43 203.825 705.858 202.274 715.252 203.246C719.566 203.707 723.9 202.854 728.165 203.583C730.209 203.709 732.164 204.503 734.212 204.283C735.869 204.069 736.952 202.168 736.289 200.653C734.886 198.251 731.529 198.43 729.086 198.092C725.113 198.067 721.126 197.843 717.21 197.183C702.134 193.877 687.583 188.567 673.217 183.046C664.682 180.288 656.152 177.509 647.737 174.371C636.308 170.854 624.561 168.378 613.201 164.597C604.607 161.153 595.849 158.336 587.041 155.463C579.822 152.963 573.437 148.605 566.312 145.914C560.92 143.872 555.219 142.679 549.869 140.476C542.473 137.086 535.23 132.698 529.497 126.846C514.187 106.864 487.916 101.702 464.366 98.1203C455.914 97.3524 447.418 97.8275 438.955 98.4197C435.141 98.609 431.495 99.2317 427.684 98.34C427.624 98.2378 426.753 98.0094 426.548 97.804C425.972 88.7833 422.586 80.4965 418.956 72.3185C415.63 64.1339 411.587 56.0424 405.393 49.6365C399.067 42.8281 391.496 37.3807 384.239 31.6477C375.738 25.0475 367.179 18.1727 357.225 13.8955C347.165 9.93685 336.495 7.89474 326.045 5.26134C313.443 2.58272 300.619 0.25679 287.689 0.0664062C269.948 0.647614 252.508 6.02352 236.119 12.584C231.069 14.7638 226.321 17.6069 221.893 20.88C220.306 22.0645 218.734 23.2746 217.076 24.3974C216.687 24.7278 216.143 24.7368 215.772 24.3366C212.262 21.5552 208.649 18.8335 204.565 16.9184C196.363 13.4685 187.452 11.9746 178.796 10.0066C170.45 8.42282 161.872 7.14596 153.384 8.16424C129.555 11.6694 110.432 28.6537 94.0448 45.1875C64.9273 73.6332 48.1164 101.76 3.19748 104.924C-21.1841 106.164 -46.1427 98.0589 -69.9672 106.411C-83.0932 110.431 -95.3815 116.618 -108.088 121.678C-116.948 125.022 -126.497 126.043 -135.922 125.604C-180.545 122.94 -227.852 114.921 -269.937 134.578C-280.82 139.533 -290.176 147.159 -300.771 152.665C-314.596 159.184 -329.271 163.252 -344.111 167.126C-356.775 171.613 -368.913 177.471 -381.984 180.705C-392.76 183.849 -403.663 186.57 -414.312 190.137C-418.733 191.486 -422.729 193.77 -427.365 194.457C-429.082 194.072 -431.041 194.942 -431.806 196.623C-427.815 196.005 -423.823 195.386 -419.852 194.762C-423.829 195.406 -427.82 196.025 -431.806 196.623C-432.284 196.714 -432.757 196.785 -433.23 196.856C-434.839 197.299 -438.411 197.638 -437.53 200.054C-437.143 200.805 -436.035 201.117 -435.395 200.571C-434.19 200.433 -433.001 200.269 -431.791 200.11C-431.671 200.315 -431.49 200.449 -431.263 200.573C-430.487 201.08 -429.507 200.558 -429.265 199.8C-416.283 198.143 -403.368 196.166 -390.52 193.782C-375.61 191.29 -360.852 187.482 -345.749 186.317C-330.257 185.73 -315.083 189.819 -299.614 190.308C-275.659 191.768 -251.856 186.136 -227.9 187.921C-212.732 189.391 -197.72 192.118 -182.524 193.486C-154.034 195.963 -125.499 198.106 -97.4271 203.826C-80.1936 207.568 -62.8356 211.084 -45.2164 212.201C-29.5463 213.327 -13.8771 211.9 1.7941 211.619C23.8533 211.068 45.874 214.292 67.9591 212.817C87.484 211.536 106.783 208.313 126.295 206.834C143.104 205.597 160 206.503 176.814 205.247C211.364 203.343 245.658 200.354 280.265 203.679C313.367 206.306 346.301 198.439 379.437 202.092C420.922 205.339 462.325 199.413 503.824 200.543C520.886 200.736 537.912 199.578 554.974 199.273C569.744 199.211 584.444 200.406 599.081 202.256ZM674.165 203.76C674.137 203.536 674.069 203.302 673.97 203.103C674.069 203.302 674.117 203.531 674.165 203.76ZM-429.011 198.092C-429.119 198.172 -429.191 198.283 -429.269 198.414C-429.197 198.303 -429.124 198.192 -429.011 198.092C-427.361 198.482 -425.762 198.404 -424.179 198.062C-425.756 198.384 -427.382 198.476 -429.011 198.092Z" fill="#A08FEE"/>
</svg>
