<svg width="464" height="153" viewBox="0 0 464 153" fill="none" xmlns="http://www.w3.org/2000/svg">
<path d="M98.5038 146.322C84.1504 148.15 69.7849 150.338 55.2823 150.218C53.7038 150.237 52.1465 150.22 50.5737 150.144C50.33 150.8 49.6872 151.298 48.5956 151.28C44.2112 150.157 39.7535 149.861 35.2608 149.434C28.7399 147.812 21.9773 146.736 15.2486 147.468C12.1586 147.815 9.04911 147.22 5.99509 147.758C4.53064 147.856 3.13251 148.432 1.66391 148.282C0.475474 148.135 -0.307734 146.777 0.161433 145.688C1.15832 143.962 3.56488 144.078 5.31414 143.826C8.162 143.793 11.0185 143.618 13.8224 143.13C24.6151 140.704 35.0236 136.844 45.2986 132.833C51.4055 130.824 57.5085 128.801 63.5272 126.52C71.7057 123.956 80.115 122.138 88.243 119.385C94.3889 116.885 100.655 114.833 106.957 112.741C112.121 110.922 116.681 107.775 121.778 105.82C125.634 104.336 129.716 103.46 133.542 101.86C138.83 99.4029 144.004 96.2309 148.091 92.015C158.988 77.6367 177.798 73.8388 194.662 71.1832C200.717 70.6012 206.808 70.9098 212.875 71.3025C215.609 71.4238 218.225 71.8564 220.953 71.203C220.996 71.1295 221.618 70.9626 221.765 70.8146C222.144 64.3474 224.539 58.3955 227.111 52.5208C229.464 46.6424 232.331 40.8282 236.746 36.2138C241.254 31.3105 246.66 27.378 251.84 23.2419C257.907 18.4797 264.016 13.5204 271.134 10.4176C278.328 7.54272 285.968 6.0391 293.448 4.11252C302.469 2.14546 311.652 0.430343 320.918 0.245361C333.634 0.595311 346.154 4.38271 357.924 9.02308C361.552 10.5664 364.965 12.5862 368.151 14.9154C369.293 15.7583 370.425 16.6197 371.617 17.4181C371.897 17.6535 372.286 17.6579 372.551 17.3697C375.056 15.3631 377.635 13.3989 380.555 12.011C386.421 9.50774 392.801 8.40363 398.998 6.96066C404.973 5.79424 411.116 4.84692 417.203 5.54485C434.295 7.96755 448.064 20.0683 459.87 31.8565C480.846 52.134 492.999 72.2289 525.204 74.3282C542.683 75.1255 560.541 69.2228 577.647 75.1194C587.069 77.9512 595.899 82.3391 605.025 85.918C611.388 88.2811 618.235 88.9772 624.988 88.6271C656.959 86.5505 690.834 80.6257 721.069 94.5557C728.888 98.0657 735.622 103.497 743.236 107.403C753.169 112.023 763.702 114.884 774.352 117.604C783.445 120.772 792.166 124.926 801.546 127.194C809.281 129.407 817.106 131.316 824.751 133.832C827.925 134.783 830.797 136.404 834.122 136.88C835.351 136.597 836.758 137.214 837.313 138.416C834.45 137.987 831.587 137.559 828.739 137.127C831.591 137.573 834.454 138.002 837.313 138.416C837.656 138.479 837.995 138.528 838.335 138.577C839.489 138.888 842.051 139.118 841.429 140.853C841.154 141.392 840.361 141.62 839.9 141.231C839.036 141.137 838.183 141.024 837.315 140.915C837.23 141.062 837.101 141.158 836.939 141.249C836.385 141.614 835.68 141.244 835.504 140.702C826.193 139.563 816.93 138.195 807.713 136.534C797.018 134.804 786.426 132.131 775.598 131.352C764.493 130.99 753.633 133.977 742.548 134.386C725.385 135.522 708.305 131.575 691.143 132.944C680.277 134.054 669.528 136.065 658.643 137.103C638.233 138.985 617.79 140.628 597.693 144.833C585.356 147.58 572.929 150.164 560.305 151.032C549.079 151.897 537.843 150.933 526.611 150.791C510.799 150.478 495.029 152.872 479.195 151.898C465.197 151.053 451.354 148.815 437.364 147.828C425.312 147.005 413.207 147.718 401.151 146.881C376.382 145.646 351.793 143.633 327.003 146.145C303.288 148.152 279.655 142.638 255.92 145.38C226.201 147.863 196.505 143.771 166.767 144.737C154.54 144.939 142.333 144.173 130.104 144.019C119.518 144.03 108.987 144.942 98.5038 146.322ZM44.6971 147.682C44.7162 147.522 44.7643 147.354 44.8347 147.211C44.7643 147.354 44.7307 147.518 44.6971 147.682ZM835.316 139.479C835.393 139.536 835.445 139.615 835.501 139.708C835.449 139.629 835.397 139.55 835.316 139.479C834.135 139.764 832.988 139.714 831.852 139.475C832.984 139.7 834.149 139.76 835.316 139.479Z" fill="white"/>
</svg>
