<svg width="464" height="153" viewBox="0 0 464 153" fill="none" xmlns="http://www.w3.org/2000/svg">
<path d="M98.5048 146.322C84.1514 148.15 69.7858 150.338 55.2833 150.218C53.7048 150.237 52.1474 150.22 50.5746 150.144C50.331 150.8 49.6882 151.298 48.5965 151.28C44.2122 150.157 39.7545 149.861 35.2618 149.434C28.7409 147.812 21.9782 146.737 15.2495 147.468C12.1596 147.815 9.05006 147.22 5.99604 147.758C4.53159 147.856 3.13346 148.432 1.66486 148.282C0.476427 148.135 -0.306781 146.777 0.162386 145.688C1.15927 143.962 3.56584 144.078 5.31509 143.826C8.16296 143.793 11.0195 143.618 13.8233 143.13C24.6161 140.704 35.0246 136.844 45.2995 132.833C51.4065 130.824 57.5095 128.801 63.5282 126.52C71.7067 123.956 80.1159 122.138 88.2439 119.385C94.3898 116.885 100.656 114.833 106.958 112.741C112.122 110.922 116.682 107.775 121.779 105.82C125.635 104.336 129.717 103.46 133.543 101.86C138.831 99.4029 144.005 96.231 148.092 92.015C158.989 77.6367 177.799 73.8389 194.663 71.1833C200.717 70.6013 206.809 70.9099 212.876 71.3026C215.61 71.4239 218.226 71.8565 220.954 71.203C220.997 71.1296 221.619 70.9627 221.766 70.8147C222.145 64.3475 224.54 58.3956 227.112 52.5209C229.465 46.6425 232.332 40.8282 236.747 36.2139C241.255 31.3106 246.661 27.3781 251.84 23.242C257.908 18.4798 264.017 13.5205 271.135 10.4177C278.329 7.5428 285.969 6.03917 293.449 4.11259C302.47 2.14554 311.653 0.430415 320.919 0.245434C333.635 0.595383 346.155 4.38279 357.925 9.02315C361.553 10.5664 364.966 12.5862 368.152 14.9154C369.294 15.7584 370.425 16.6197 371.618 17.4182C371.898 17.6536 372.287 17.658 372.552 17.3698C375.057 15.3632 377.636 13.399 380.556 12.0111C386.422 9.50781 392.802 8.40371 398.999 6.96073C404.974 5.79431 411.117 4.84699 417.204 5.54492C434.296 7.96762 448.065 20.0684 459.871 31.8566C480.847 52.1341 493 72.2289 525.205 74.3283C542.684 75.1256 560.541 69.2229 577.648 75.1195C587.07 77.9513 595.9 82.3392 605.026 85.9181C611.388 88.2812 618.236 88.9773 624.989 88.6272C656.96 86.5506 690.834 80.6257 721.07 94.5558C728.889 98.0658 735.623 103.497 743.237 107.403C753.17 112.023 763.703 114.884 774.353 117.604C783.446 120.772 792.167 124.926 801.547 127.194C809.282 129.407 817.106 131.316 824.752 133.832C827.926 134.783 830.798 136.404 834.123 136.88C835.352 136.597 836.759 137.214 837.314 138.416C834.451 137.987 831.588 137.559 828.74 137.127C831.592 137.573 834.455 138.002 837.314 138.416C837.657 138.479 837.996 138.528 838.335 138.577C839.49 138.888 842.052 139.118 841.43 140.853C841.155 141.392 840.362 141.62 839.901 141.232C839.037 141.137 838.184 141.024 837.316 140.915C837.231 141.062 837.102 141.159 836.94 141.249C836.386 141.614 835.681 141.244 835.505 140.702C826.194 139.563 816.931 138.195 807.714 136.534C797.019 134.805 786.427 132.131 775.599 131.352C764.494 130.99 753.634 133.977 742.549 134.386C725.386 135.522 708.306 131.575 691.143 132.944C680.278 134.054 669.529 136.065 658.644 137.103C638.234 138.985 617.791 140.628 597.694 144.833C585.357 147.58 572.93 150.164 560.306 151.032C549.08 151.897 537.844 150.933 526.612 150.791C510.8 150.478 495.03 152.872 479.196 151.898C465.198 151.053 451.355 148.815 437.365 147.828C425.313 147.005 413.208 147.718 401.152 146.881C376.383 145.646 351.794 143.633 327.004 146.145C303.289 148.152 279.656 142.638 255.921 145.38C226.202 147.863 196.506 143.771 166.768 144.737C154.541 144.939 142.334 144.173 130.105 144.019C119.519 144.03 108.988 144.942 98.5048 146.322ZM44.6981 147.682C44.7172 147.522 44.7653 147.354 44.8356 147.211C44.7653 147.354 44.7317 147.518 44.6981 147.682ZM835.317 139.479C835.394 139.536 835.446 139.615 835.502 139.708C835.45 139.629 835.398 139.55 835.317 139.479C834.136 139.764 832.989 139.714 831.853 139.475C832.985 139.7 834.15 139.76 835.317 139.479Z" fill="white"/>
</svg>
