<svg width="700" height="187" viewBox="0 0 700 187" fill="none" xmlns="http://www.w3.org/2000/svg">
<path d="M580.355 176.538C597.772 178.663 615.206 181.225 632.792 180.988C634.706 181.001 636.595 180.97 638.502 180.868C638.801 181.662 639.584 182.262 640.908 182.233C646.217 180.843 651.621 180.456 657.066 179.91C664.964 177.902 673.158 176.554 681.322 177.399C685.071 177.8 688.838 177.058 692.545 177.692C694.322 177.801 696.021 178.491 697.801 178.3C699.241 178.114 700.182 176.462 699.606 175.145C698.386 173.057 695.469 173.213 693.346 172.919C689.892 172.897 686.427 172.703 683.024 172.129C669.921 169.256 657.274 164.641 644.789 159.842C637.37 157.445 629.956 155.03 622.643 152.303C612.709 149.246 602.5 147.094 592.626 143.808C585.158 140.814 577.546 138.366 569.89 135.869C563.616 133.696 558.067 129.909 551.874 127.57C547.188 125.795 542.233 124.759 537.583 122.843C531.155 119.897 524.86 116.084 519.877 110.997C506.571 93.6303 483.738 89.1443 463.271 86.0311C455.925 85.3637 448.54 85.7766 441.185 86.2914C437.87 86.4559 434.701 86.9971 431.389 86.222C431.337 86.1332 430.58 85.9347 430.401 85.7562C429.901 77.9161 426.958 70.7138 423.803 63.606C420.912 56.4926 417.398 49.4601 412.015 43.8925C406.517 37.9752 399.937 33.2407 393.629 28.2579C386.241 22.5216 378.802 16.5465 370.151 12.829C361.408 9.38848 352.134 7.61361 343.051 5.32485C332.099 2.99679 320.953 0.975272 309.715 0.809803C294.296 1.31495 279.138 5.98729 264.895 11.6892C260.506 13.5837 256.379 16.0547 252.53 18.8995C251.151 19.929 249.784 20.9807 248.344 21.9565C248.005 22.2437 247.533 22.2515 247.211 21.9037C244.16 19.4863 241.02 17.1208 237.471 15.4563C230.341 12.458 222.597 11.1596 215.074 9.44911C207.82 8.07259 200.365 6.96284 192.988 7.84786C172.277 10.8943 155.657 25.6558 141.414 40.0258C116.107 64.7487 101.496 89.194 62.4562 91.9444C41.2654 93.0223 19.5733 85.9777 -1.13326 93.237C-12.5414 96.7308 -23.2215 102.108 -34.2652 106.506C-41.9656 109.412 -50.2645 110.299 -58.4562 109.918C-97.2392 107.603 -138.355 100.633 -174.932 117.718C-184.391 122.024 -192.523 128.652 -201.731 133.438C-213.747 139.103 -226.501 142.639 -239.399 146.005C-250.406 149.905 -260.955 154.997 -272.315 157.808C-281.681 160.54 -291.157 162.905 -300.413 166.005C-304.255 167.178 -307.728 169.162 -311.758 169.76C-313.249 169.425 -314.952 170.182 -315.617 171.643C-312.148 171.105 -308.679 170.567 -305.228 170.025C-308.684 170.585 -312.153 171.123 -315.617 171.643C-316.033 171.722 -316.444 171.783 -316.855 171.845C-318.253 172.23 -321.358 172.525 -320.592 174.625C-320.256 175.277 -319.293 175.548 -318.736 175.074C-317.689 174.954 -316.655 174.811 -315.604 174.673C-315.5 174.851 -315.343 174.968 -315.145 175.076C-314.471 175.516 -313.619 175.063 -313.408 174.403C-302.125 172.964 -290.901 171.245 -279.734 169.174C-266.776 167.008 -253.949 163.698 -240.823 162.685C-227.358 162.175 -214.17 165.729 -200.725 166.154C-179.906 167.423 -159.218 162.528 -138.397 164.079C-125.214 165.357 -112.166 167.727 -98.9596 168.916C-74.1979 171.069 -49.3976 172.931 -24.9994 177.903C-10.0213 181.155 5.06504 184.211 20.3783 185.182C33.9977 186.16 47.6162 184.92 61.2365 184.676C80.4088 184.197 99.5475 186.999 118.742 185.717C135.712 184.604 152.485 181.803 169.443 180.517C184.052 179.442 198.737 180.23 213.351 179.138C243.38 177.483 273.185 174.886 303.263 177.775C332.033 180.058 360.657 173.221 389.456 176.396C425.512 179.217 461.497 174.067 497.564 175.05C512.393 175.217 527.191 174.211 542.02 173.946C554.858 173.891 567.634 174.931 580.355 176.538ZM645.612 177.845C645.588 177.651 645.529 177.447 645.443 177.274C645.529 177.447 645.57 177.646 645.612 177.845ZM-313.188 172.919C-313.282 172.989 -313.345 173.085 -313.412 173.199C-313.349 173.103 -313.286 173.006 -313.188 172.919C-311.754 173.258 -310.364 173.19 -308.988 172.893C-310.359 173.173 -311.772 173.253 -313.188 172.919Z" fill="white"/>
</svg>
